<svg width="55" height="86" viewBox="0 0 55 86" fill="none" xmlns="http://www.w3.org/2000/svg">
<path d="M0.6 85.79V71.39C1.32 70.75 3.28 68.87 6.48 65.75C9.76 62.55 11.96 60.35 13.08 59.15C14.2 57.95 16.12 55.95 18.84 53.15C21.56 50.27 23.48 47.99 24.6 46.31C25.72 44.63 27.04 42.59 28.56 40.19C30.16 37.71 31.24 35.43 31.8 33.35C32.44 31.27 32.76 29.19 32.76 27.11C32.76 21.59 30.2 18.83 25.08 18.83C22.68 18.83 20.8 19.63 19.44 21.23C18.08 22.75 16.88 24.95 15.84 27.83L0.84 20.99C2.2 14.83 5.12 9.95003 9.6 6.35003C14.16 2.67004 20.04 0.830039 27.24 0.830039C35 0.830039 41.04 3.03004 45.36 7.43003C49.76 11.83 51.96 17.19 51.96 23.51C51.96 39.43 42.6 54.59 23.88 68.99H54.84V85.79H0.6Z" fill="#FF8600"/>
</svg>
