<svg width="57" height="87" viewBox="0 0 57 87" fill="none" xmlns="http://www.w3.org/2000/svg">
<path d="M28.15 86.9703C21.51 86.9703 15.83 85.6903 11.11 83.1303C6.38998 80.4903 2.82998 77.1303 0.429981 73.0503L10.39 59.7303C15.75 65.8903 21.27 68.9703 26.95 68.9703C30.39 68.9703 32.99 68.2103 34.75 66.6903C36.59 65.0903 37.51 63.1303 37.51 60.8103C37.51 54.6503 32.75 51.5703 23.23 51.5703H17.95V33.5703H22.75C26.11 33.5703 28.87 32.8503 31.03 31.4103C33.19 29.9703 34.27 27.8903 34.27 25.1703C34.27 23.1703 33.63 21.4903 32.35 20.1303C31.15 18.7703 29.23 18.0903 26.59 18.0903C20.99 18.0903 16.15 20.6103 12.07 25.6503L2.22998 12.6903C7.42998 4.29027 16.11 0.0902719 28.27 0.0902719C35.71 0.0902719 41.75 2.05027 46.39 5.97027C51.11 9.81027 53.47 15.0103 53.47 21.5703C53.47 26.4503 52.43 30.4903 50.35 33.6903C48.35 36.8103 45.23 39.3303 40.99 41.2503V41.6103C46.03 42.5703 49.91 44.8503 52.63 48.4503C55.35 52.0503 56.71 56.4103 56.71 61.5303C56.71 69.2903 53.99 75.4903 48.55 80.1303C43.19 84.6903 36.39 86.9703 28.15 86.9703Z" fill="#FF8600"/>
</svg>
