<svg width="57" height="86" viewBox="0 0 57 86" fill="none" xmlns="http://www.w3.org/2000/svg">
<path d="M7.31 47.52L13.07 0.479975H54.59V18.48H28.91L27.23 29.16H30.11C37.63 29.16 43.87 31.64 48.83 36.6C53.87 41.56 56.39 48.2 56.39 56.52C56.39 65.64 53.51 72.84 47.75 78.12C41.99 83.32 34.67 85.92 25.79 85.92C21.15 85.92 16.43 84.92 11.63 82.92C6.91 80.84 3.35 78.08 0.95 74.64L11.03 60.84C12.71 62.84 14.99 64.52 17.87 65.88C20.75 67.24 23.55 67.92 26.27 67.92C29.47 67.92 32.07 66.96 34.07 65.04C36.15 63.04 37.19 60.48 37.19 57.36C37.19 53.84 35.83 50.96 33.11 48.72C30.39 46.48 26.59 45.36 21.71 45.36C15.15 45.36 10.35 46.08 7.31 47.52Z" fill="#894083"/>
</svg>
