<svg width="61" height="87" viewBox="0 0 61 87" fill="none" xmlns="http://www.w3.org/2000/svg">
<path d="M0.8 55.72C0.8 48.36 2.08 41.4 4.64 34.84C7.28 28.2 10.68 22.6 14.84 18.04C19.08 13.48 23.56 9.67998 28.28 6.63998C33.08 3.51998 37.84 1.31998 42.56 0.039979L49.88 13.6C43.56 15.76 37.96 18.92 33.08 23.08C28.2 27.24 24.56 32.12 22.16 37.72C25.44 34.68 30.36 33.16 36.92 33.16C43.16 33.16 48.56 35.56 53.12 40.36C57.76 45.16 60.08 51.28 60.08 58.72C60.08 67.52 57.24 74.44 51.56 79.48C45.88 84.44 39.28 86.92 31.76 86.92C22.56 86.92 15.08 83.92 9.32 77.92C3.64 71.92 0.8 64.52 0.8 55.72ZM20 55.84C20 59.84 21.04 63.04 23.12 65.44C25.2 67.76 28.12 68.92 31.88 68.92C34.84 68.92 37.08 68.04 38.6 66.28C40.12 64.52 40.88 62.44 40.88 60.04C40.88 57.08 40 54.68 38.24 52.84C36.48 50.92 33.96 49.96 30.68 49.96C26.28 49.96 22.72 51.92 20 55.84Z" fill="#FF8600"/>
</svg>
