<svg width="55" height="56" viewBox="0 0 55 56" fill="none" xmlns="http://www.w3.org/2000/svg">
<g clip-path="url(#clip0_1_152)">
<g clip-path="url(#clip1_1_152)">
<mask id="mask0_1_152" style="mask-type:luminance" maskUnits="userSpaceOnUse" x="0" y="0" width="55" height="56">
<path d="M55 0.299805H0V55.2998H55V0.299805Z" fill="white"/>
</mask>
<g mask="url(#mask0_1_152)">
<path fill-rule="evenodd" clip-rule="evenodd" d="M42.5579 28.7849C39.8972 28.7849 37.7407 26.584 37.7407 23.8685C37.7407 21.1529 39.8972 18.9521 42.5579 18.9521C45.2188 18.9521 47.3752 21.1529 47.3752 23.8685C47.3752 26.584 45.2188 28.7849 42.5579 28.7849ZM45.1666 24.4897V23.1408H43.1319V20.8512H41.8101V24.4897H45.1666Z" fill="white"/>
<path d="M30.089 25.5729C30.0629 25.5639 30.0412 25.5551 30.0194 25.5462C29.9977 25.5373 29.976 25.5285 29.9499 25.5195C28.7846 27.0814 27.6195 28.6433 26.4543 30.2229C26.2056 30.5444 26.4627 30.5433 26.6529 30.5425L26.6804 30.5424C27.1586 30.5336 27.6369 30.5202 28.1151 30.507C28.5934 30.4936 29.0716 30.4803 29.5498 30.4714C29.8456 30.4714 29.9672 30.3295 29.9672 30.0277C29.9672 29.8259 29.9692 29.6241 29.9712 29.423C29.975 29.0226 29.9788 28.6249 29.9672 28.2351C29.9542 27.5696 29.9998 26.904 30.0455 26.2384C30.0607 26.0165 30.076 25.7946 30.089 25.5729Z" fill="white"/>
<path fill-rule="evenodd" clip-rule="evenodd" d="M55 27.7998C55 42.9877 42.6879 55.2998 27.5 55.2998C12.3121 55.2998 0 42.9877 0 27.7998C0 12.6119 12.3121 0.299805 27.5 0.299805C42.6879 0.299805 55 12.6119 55 27.7998ZM42.5579 17.5855C39.1494 17.5855 36.4017 20.4075 36.4017 23.8685C36.4017 27.3295 39.1668 30.1514 42.5579 30.1514C45.9492 30.1514 48.7143 27.3295 48.7143 23.8685C48.7143 20.4075 45.9665 17.5855 42.5579 17.5855ZM10.0023 37.9963H15.9152C17.8974 37.9963 19.8806 37.9963 21.8803 37.9786C22.5411 37.9786 22.5585 37.9609 22.5585 37.2686V35.3163C22.5411 34.6596 22.5237 34.6419 21.8977 34.6419H17.4108C17.1804 34.6419 16.9482 34.6399 16.7145 34.638C16.2431 34.634 15.7658 34.63 15.2891 34.6419C15.2524 34.6419 15.2079 34.644 15.159 34.6463C14.8612 34.6606 14.3971 34.6829 14.4718 34.2869C14.4892 34.1804 14.5413 34.0917 14.5936 34.0029C14.9066 33.4882 15.3066 33.009 15.7065 32.5653C16.1935 32.0328 16.7326 31.5537 17.3065 31.1277C18.4543 30.2935 19.6369 29.4238 20.5934 28.3766C21.5847 27.294 22.2802 26.0694 22.2802 24.5252C22.2802 21.9872 21.0629 20.301 18.6282 19.7153C15.7413 19.0054 13.0109 19.6621 10.3676 20.8158C10.072 20.9577 10.0894 21.1707 10.1763 21.4192C10.2373 21.606 10.3013 21.7944 10.3656 21.9839C10.5214 22.4421 10.6793 22.9069 10.8024 23.3715C10.9241 23.8507 11.1154 23.904 11.5501 23.7088C13.0283 23.0343 14.5588 22.5906 16.1935 22.7149C17.4108 22.8035 18.2282 23.5135 18.3152 24.6317C18.3673 25.4304 18.0195 26.0694 17.4978 26.6196C16.7986 27.3671 15.9719 27.952 15.155 28.53L15.0456 28.6073C12.0197 30.755 9.9328 33.506 9.46326 37.3397C9.3763 37.9609 9.3937 37.9963 10.0023 37.9963ZM33.6539 25.0222C33.6539 25.5546 33.6558 26.087 33.6577 26.6196C33.6617 27.6842 33.6655 28.7495 33.6539 29.8143C33.6539 30.2935 33.7756 30.5065 34.2799 30.4709C34.6162 30.4473 34.9524 30.4552 35.2886 30.4631C35.4567 30.467 35.6249 30.4709 35.7929 30.4709C36.1408 30.4709 36.3146 30.5952 36.2972 30.9857C36.2799 31.6956 36.2799 32.3878 36.2972 33.0978C36.2972 33.4527 36.1756 33.5947 35.8278 33.5947C35.5494 33.5858 35.2712 33.5902 34.993 33.5947C34.7148 33.5992 34.4364 33.6036 34.1582 33.5947C33.793 33.577 33.6539 33.7367 33.6539 34.1094C33.6614 34.5734 33.6592 35.0374 33.6571 35.5015C33.6542 36.1201 33.6515 36.7388 33.6713 37.3574C33.6887 37.8366 33.5495 38.0495 33.0452 38.0319C32.2278 37.9963 31.3931 38.0141 30.5758 38.0319C30.141 38.0495 29.967 37.8899 29.9844 37.4461C29.9932 36.9048 29.9932 36.3634 29.9932 35.822C29.9932 35.2808 29.9932 34.7394 30.0018 34.1982C30.0192 33.7544 29.8454 33.5947 29.4106 33.5947C28.2718 33.6036 27.1374 33.6036 26.003 33.6036C24.8682 33.6036 23.7324 33.6036 22.5934 33.6124C22.0891 33.6124 21.9673 33.4527 21.9151 32.938C21.7934 31.7134 22.2108 30.7727 22.976 29.8143C25.0752 27.1863 27.1181 24.5238 29.159 21.8637L29.1606 21.8618C29.6553 21.217 30.15 20.5723 30.6453 19.9283C30.8714 19.6444 31.0975 19.5201 31.4453 19.5201C32.0017 19.5378 32.5582 19.5378 33.1148 19.5201C33.5321 19.5024 33.6713 19.6798 33.6713 20.088C33.6539 21.7387 33.6539 23.3893 33.6539 25.0222Z" fill="white"/>
</g>
</g>
</g>
<defs>
<clipPath id="clip0_1_152">
<rect width="55" height="55" fill="white" transform="translate(0 0.299805)"/>
</clipPath>
<clipPath id="clip1_1_152">
<rect width="55" height="55" fill="white" transform="translate(0 0.299805)"/>
</clipPath>
</defs>
</svg>
