<svg width="46" height="22" viewBox="0 0 46 22" fill="none" xmlns="http://www.w3.org/2000/svg">
<path d="M37.5835 0.583008C35.2918 0.583008 33.4168 2.45801 33.4168 4.74967V8.91634C33.4168 11.208 35.2918 13.083 37.5835 13.083H41.7502V17.2497H33.4168V21.4163H41.7502C44.0418 21.4163 45.9168 19.5413 45.9168 17.2497V13.083C45.9168 10.7913 44.0418 8.91634 41.7502 8.91634H37.5835V4.74967H45.9168V0.583008H37.5835ZM16.7502 0.583008V21.4163H25.0835C27.3752 21.4163 29.2502 19.5413 29.2502 17.2497V4.74967C29.2502 2.45801 27.3752 0.583008 25.0835 0.583008H16.7502ZM20.9168 4.74967H25.0835V17.2497H20.9168V4.74967ZM4.25016 0.583008C1.9585 0.583008 0.0834961 2.45801 0.0834961 4.74967V21.4163H4.25016V13.083H8.41683V21.4163H12.5835V4.74967C12.5835 2.45801 10.7085 0.583008 8.41683 0.583008H4.25016ZM4.25016 4.74967H8.41683V8.91634H4.25016V4.74967Z" fill="#E01839"/>
<path d="M37.5835 0.583008C35.2918 0.583008 33.4168 2.45801 33.4168 4.74967V8.91634C33.4168 11.208 35.2918 13.083 37.5835 13.083H41.7502V17.2497H33.4168V21.4163H41.7502C44.0418 21.4163 45.9168 19.5413 45.9168 17.2497V13.083C45.9168 10.7913 44.0418 8.91634 41.7502 8.91634H37.5835V4.74967H45.9168V0.583008H37.5835ZM16.7502 0.583008V21.4163H25.0835C27.3752 21.4163 29.2502 19.5413 29.2502 17.2497V4.74967C29.2502 2.45801 27.3752 0.583008 25.0835 0.583008H16.7502ZM20.9168 4.74967H25.0835V17.2497H20.9168V4.74967ZM4.25016 0.583008C1.9585 0.583008 0.0834961 2.45801 0.0834961 4.74967V21.4163H4.25016V13.083H8.41683V21.4163H12.5835V4.74967C12.5835 2.45801 10.7085 0.583008 8.41683 0.583008H4.25016ZM4.25016 4.74967H8.41683V8.91634H4.25016V4.74967Z" fill="url(#paint0_linear_22_819)"/>
<defs>
<linearGradient id="paint0_linear_22_819" x1="0.0834961" y1="10.9997" x2="45.9168" y2="10.9997" gradientUnits="userSpaceOnUse">
<stop stop-color="#7A4281"/>
<stop offset="1" stop-color="#E48023"/>
</linearGradient>
</defs>
</svg>
