<svg width="31" height="47" viewBox="0 0 31 47" fill="none" xmlns="http://www.w3.org/2000/svg">
<path d="M30.6364 9.10455C30.6364 9.09455 30.6364 9.08455 30.6364 9.07455C30.6343 9.03546 30.6294 8.99658 30.6218 8.95818C30.6142 8.91963 30.6039 8.88166 30.5909 8.84455L30.5809 8.81727C30.5682 8.78201 30.553 8.74768 30.5355 8.71455V8.70909C30.5174 8.67408 30.4964 8.64062 30.4727 8.60909L30.4555 8.58455C30.4311 8.55258 30.4046 8.52221 30.3764 8.49364L22.1491 0.266364C22.1205 0.238079 22.0901 0.211661 22.0582 0.187273L22.0336 0.169091C22.002 0.14634 21.9689 0.125689 21.9345 0.107273H21.9273C21.8942 0.0902777 21.8602 0.0751036 21.8255 0.0618182L21.7973 0.0527273C21.7604 0.0399057 21.7227 0.029281 21.6845 0.0209091C21.6456 0.0115623 21.6061 0.00457985 21.5664 0L21.5373 0H21.5064H0.909091C0.667985 0 0.436754 0.0957789 0.266267 0.266267C0.0957789 0.436754 0 0.667985 0 0.909091L0 39.8182C0 40.0593 0.0957789 40.2905 0.266267 40.461C0.436754 40.6315 0.667985 40.7273 0.909091 40.7273H14.5955V45.6364C14.5954 45.7988 14.6389 45.9584 14.7214 46.0983C14.804 46.2383 14.9225 46.3536 15.0647 46.4322C15.2069 46.5108 15.3675 46.5499 15.53 46.5453C15.6924 46.5408 15.8506 46.4928 15.9882 46.4064L19.4545 44.2345L22.9091 46.4064C23.0467 46.4938 23.2053 46.5425 23.3683 46.5476C23.5313 46.5526 23.6926 46.5137 23.8353 46.435C23.9781 46.3562 24.0971 46.2406 24.1798 46.1001C24.2625 45.9596 24.3059 45.7994 24.3055 45.6364V40.7273H29.7318C29.9729 40.7273 30.2042 40.6315 30.3746 40.461C30.5451 40.2905 30.6409 40.0593 30.6409 39.8182V9.13545C30.6409 9.12545 30.6364 9.11545 30.6364 9.10455ZM22.4118 3.10455L27.5336 8.22727H22.4155L22.4118 3.10455ZM14.1473 28.0791C14.0836 27.9055 13.9791 27.6245 13.9773 27.5055C14.0482 27.4145 14.2945 27.2618 14.4455 27.1664C14.7691 26.9618 15.1364 26.73 15.4027 26.3673C15.6691 26.0045 15.7809 25.5764 15.8773 25.2027C15.9172 25.0221 15.9738 24.8456 16.0464 24.6755C16.1205 24.6628 16.1957 24.6573 16.2709 24.6591C16.3727 24.6591 16.4855 24.6655 16.6055 24.6709C16.7436 24.6782 16.8855 24.6855 17.0345 24.6855C17.3161 24.6921 17.5968 24.6525 17.8655 24.5682C18.2836 24.4291 18.6191 24.1591 18.9145 23.9218C19.0782 23.79 19.3509 23.57 19.4464 23.5582C19.55 23.5718 19.8236 23.7918 19.9918 23.9218C20.2873 24.1591 20.6218 24.4291 21.0409 24.5682C21.3096 24.6525 21.5903 24.6921 21.8718 24.6855C22.02 24.6855 22.1627 24.6782 22.3 24.6709C22.42 24.6655 22.5336 24.6591 22.6345 24.6591C22.71 24.6573 22.7855 24.6628 22.86 24.6755C22.9327 24.8455 22.989 25.022 23.0282 25.2027C23.1245 25.5764 23.2345 26 23.5036 26.3673C23.7727 26.7345 24.14 26.9618 24.4609 27.1664C24.6118 27.2618 24.8582 27.4173 24.9291 27.5055C24.9291 27.6218 24.8227 27.9055 24.7591 28.0791C24.6236 28.4473 24.47 28.8655 24.47 29.3282C24.47 29.7909 24.6236 30.2082 24.7582 30.5764C24.8227 30.75 24.9264 31.0309 24.9291 31.15C24.8582 31.2409 24.6118 31.3936 24.4609 31.4891C24.1364 31.6936 23.7691 31.9264 23.5036 32.2891C23.2382 32.6518 23.1245 33.08 23.0282 33.4527C22.989 33.6334 22.9327 33.81 22.86 33.98C22.7856 33.9932 22.7101 33.9987 22.6345 33.9964C22.5336 33.9964 22.42 33.9909 22.3 33.9845C22.1627 33.9782 22.02 33.9709 21.8718 33.9709C21.5887 33.9651 21.3065 34.0057 21.0364 34.0909C20.6173 34.2309 20.2827 34.5 19.9873 34.7382C19.8264 34.8682 19.5573 35.0836 19.4509 35.1018C19.3436 35.0827 19.0755 34.8673 18.9145 34.7382C18.6191 34.5 18.2836 34.2309 17.8655 34.0909C17.5966 34.0074 17.316 33.9681 17.0345 33.9745C16.8864 33.9745 16.7436 33.9818 16.6055 33.9882C16.4864 33.9945 16.3727 34 16.2709 34C16.1957 34.0023 16.1204 33.9968 16.0464 33.9836C15.9738 33.8135 15.9172 33.637 15.8773 33.4564C15.7809 33.0836 15.6718 32.6591 15.4027 32.2927C15.1336 31.9264 14.7664 31.6973 14.4455 31.4927C14.2945 31.4018 14.0482 31.2418 13.9773 31.1536C13.9773 31.0382 14.0836 30.7536 14.1473 30.58C14.2827 30.2164 14.4355 29.7945 14.4355 29.3318C14.4355 28.8691 14.2827 28.4473 14.1473 28.0791ZM22.4873 43.9927L19.9336 42.3909C19.7888 42.3001 19.6214 42.2519 19.4505 42.2519C19.2795 42.2519 19.1121 42.3001 18.9673 42.3909L16.4136 43.9927V35.8109C16.5106 35.8109 16.6052 35.8073 16.6973 35.8C16.8182 35.7936 16.9318 35.7882 17.0345 35.7882C17.1207 35.7835 17.2071 35.7915 17.2909 35.8118C17.3991 35.8482 17.6073 36.0155 17.7745 36.15C18.1991 36.4918 18.7273 36.9164 19.4509 36.9164C20.1745 36.9164 20.7027 36.4918 21.1264 36.15C21.2936 36.0155 21.5018 35.8482 21.61 35.8118C21.6942 35.7916 21.7808 35.7836 21.8673 35.7882C21.97 35.7882 22.0836 35.7936 22.2036 35.8C22.2945 35.8045 22.3909 35.8082 22.4873 35.8109V43.9927ZM24.3055 38.9109V35.0791C24.5782 34.7155 24.6882 34.2773 24.7836 33.9082C24.8345 33.7145 24.9027 33.4491 24.9655 33.3627C25.0282 33.2764 25.2582 33.1318 25.4273 33.0255C25.8745 32.7427 26.4318 32.3891 26.6527 31.7255C26.8736 31.0618 26.6436 30.4482 26.4609 29.95C26.3782 29.7236 26.2836 29.4664 26.2836 29.3273C26.2836 29.1882 26.3745 28.9309 26.4609 28.7045C26.6427 28.2055 26.8718 27.5855 26.6527 26.9282C26.4336 26.2709 25.8745 25.9091 25.4273 25.63C25.2582 25.5227 25.0273 25.3764 24.9655 25.2918C24.9036 25.2073 24.8345 24.9418 24.7836 24.7464C24.6536 24.24 24.4909 23.61 23.9336 23.2009C23.4909 22.8764 22.9773 22.8373 22.63 22.8373C22.4827 22.8373 22.3409 22.8445 22.2036 22.8518C22.0836 22.8582 21.97 22.8636 21.8673 22.8636C21.7808 22.8682 21.6942 22.8603 21.61 22.84C21.5027 22.8036 21.2945 22.6364 21.1273 22.5009C20.7027 22.16 20.1745 21.7355 19.4509 21.7355C18.7273 21.7355 18.1991 22.16 17.7745 22.5009C17.6073 22.6364 17.3991 22.8036 17.2909 22.84C17.2071 22.8604 17.1207 22.8683 17.0345 22.8636C16.9318 22.8636 16.8182 22.8582 16.6973 22.8518C16.56 22.8445 16.4191 22.8373 16.2709 22.8373C15.9236 22.8373 15.4109 22.8755 14.9682 23.2009C14.4109 23.6091 14.2482 24.2391 14.1173 24.7464C14.0673 24.94 13.9982 25.2009 13.9355 25.2918C13.8727 25.3827 13.6418 25.5227 13.4727 25.63C13.0255 25.9127 12.4727 26.2664 12.2473 26.9291C12.0218 27.5918 12.2564 28.2018 12.4391 28.7055C12.5227 28.9318 12.6164 29.1882 12.6164 29.3282C12.6164 29.4682 12.5255 29.7245 12.4391 29.9509C12.2573 30.4491 12.0291 31.07 12.2473 31.7264C12.4655 32.3827 13.0264 32.7436 13.4727 33.0264C13.6418 33.1327 13.8727 33.2791 13.9355 33.3636C13.9982 33.4482 14.0664 33.7145 14.1173 33.9091C14.2127 34.2782 14.3264 34.7136 14.5964 35.08V38.9091H1.81818V1.81818H20.5973V9.13545C20.5973 9.37656 20.6931 9.60779 20.8635 9.77828C21.034 9.94877 21.2653 10.0445 21.5064 10.0445H28.8227V38.9091L24.3055 38.9109ZM5.35091 10.0445H17.0636C17.3047 10.0445 17.536 9.94877 17.7065 9.77828C17.8769 9.60779 17.9727 9.37656 17.9727 9.13545C17.9727 8.89435 17.8769 8.66312 17.7065 8.49263C17.536 8.32214 17.3047 8.22636 17.0636 8.22636H5.35091C5.1098 8.22636 4.87857 8.32214 4.70808 8.49263C4.5376 8.66312 4.44182 8.89435 4.44182 9.13545C4.44182 9.37656 4.5376 9.60779 4.70808 9.77828C4.87857 9.94877 5.1098 10.0445 5.35091 10.0445ZM25.3918 12.8182H5.35091C5.1098 12.8182 4.87857 12.914 4.70808 13.0844C4.5376 13.2549 4.44182 13.4862 4.44182 13.7273C4.44182 13.9684 4.5376 14.1996 4.70808 14.3701C4.87857 14.5406 5.1098 14.6364 5.35091 14.6364H25.3918C25.6329 14.6364 25.8642 14.5406 26.0346 14.3701C26.2051 14.1996 26.3009 13.9684 26.3009 13.7273C26.3009 13.4862 26.2051 13.2549 26.0346 13.0844C25.8642 12.914 25.6329 12.8182 25.3918 12.8182ZM21.7555 17.4073H5.35091C5.1098 17.4073 4.87857 17.5031 4.70808 17.6735C4.5376 17.844 4.44182 18.0753 4.44182 18.3164C4.44182 18.5575 4.5376 18.7887 4.70808 18.9592C4.87857 19.1297 5.1098 19.2255 5.35091 19.2255H21.7555C21.9966 19.2255 22.2278 19.1297 22.3983 18.9592C22.5688 18.7887 22.6645 18.5575 22.6645 18.3164C22.6645 18.0753 22.5688 17.844 22.3983 17.6735C22.2278 17.5031 21.9966 17.4073 21.7555 17.4073ZM25.3918 17.4073C25.212 17.4073 25.0363 17.4606 24.8868 17.5605C24.7373 17.6604 24.6207 17.8024 24.5519 17.9685C24.4831 18.1346 24.4651 18.3174 24.5002 18.4937C24.5353 18.6701 24.6219 18.8321 24.749 18.9592C24.8761 19.0863 25.0381 19.1729 25.2145 19.208C25.3908 19.2431 25.5736 19.2251 25.7397 19.1563C25.9058 19.0874 26.0478 18.9709 26.1477 18.8214C26.2476 18.6719 26.3009 18.4962 26.3009 18.3164C26.3013 18.1968 26.278 18.0782 26.2325 17.9676C26.187 17.857 26.1201 17.7565 26.0356 17.6718C25.9512 17.5871 25.8508 17.5199 25.7403 17.474C25.6299 17.4282 25.5114 17.4045 25.3918 17.4045V17.4073Z" fill="url(#paint0_linear_14_7)"/>
<defs>
<linearGradient id="paint0_linear_14_7" x1="0" y1="23.274" x2="30.6409" y2="23.274" gradientUnits="userSpaceOnUse">
<stop stop-color="#7A4281"/>
<stop offset="1" stop-color="#E48023"/>
</linearGradient>
</defs>
</svg>
