<svg width="47" height="47" viewBox="0 0 47 47" fill="none" xmlns="http://www.w3.org/2000/svg">
<path d="M14.1818 33.6367C14.002 33.6367 13.8263 33.69 13.6768 33.7899C13.5273 33.8898 13.4108 34.0318 13.3419 34.1979C13.2731 34.364 13.2551 34.5468 13.2902 34.7232C13.3253 34.8995 13.4119 35.0615 13.539 35.1886C13.6662 35.3158 13.8281 35.4024 14.0045 35.4374C14.1808 35.4725 14.3636 35.4545 14.5297 35.3857C14.6958 35.3169 14.8378 35.2004 14.9377 35.0509C15.0376 34.9014 15.0909 34.7256 15.0909 34.5458C15.0909 34.3047 14.9951 34.0735 14.8247 33.903C14.6542 33.7325 14.4229 33.6367 14.1818 33.6367ZM40.9218 17.2731L46.2791 11.9158C46.39 11.8053 46.4706 11.6681 46.5129 11.5174C46.5552 11.3667 46.5579 11.2076 46.5207 11.0555C46.4835 10.9034 46.4076 10.7636 46.3005 10.6494C46.1933 10.5353 46.0585 10.4507 45.9091 10.404L32.8591 6.37762C32.2998 4.58768 31.2007 3.01451 29.7123 1.8737C28.2239 0.732892 26.4191 0.080284 24.5454 0.00531661C22.6716 -0.0696508 20.8205 0.436691 19.2457 1.45495C17.6709 2.4732 16.4496 3.95354 15.7491 5.69308L0.636382 10.4049C0.487004 10.4515 0.352185 10.5359 0.24497 10.6498C0.137755 10.7638 0.0617759 10.9035 0.0243837 11.0555C-0.0130085 11.2074 -0.0105472 11.3665 0.0315293 11.5172C0.0736059 11.6679 0.153873 11.8052 0.264563 11.9158L5.76275 17.414L2.29638 23.1931C2.22621 23.3099 2.18319 23.441 2.17051 23.5766C2.15783 23.7123 2.17581 23.8491 2.22312 23.9769C2.27043 24.1046 2.34585 24.2202 2.44382 24.3149C2.54179 24.4096 2.6598 24.481 2.78911 24.524L7.8182 26.2004V40.1822C7.81827 40.3672 7.87479 40.5478 7.98022 40.6998C8.08564 40.8519 8.23495 40.9681 8.4082 41.0331C11.4837 42.1867 22.9091 46.4713 22.9709 46.4931C23.1583 46.5599 23.3626 46.5628 23.5518 46.5013H23.56L39.9237 41.0467C40.105 40.9863 40.2628 40.8702 40.3744 40.715C40.486 40.5598 40.5459 40.3734 40.5455 40.1822V25.8258L45.9091 24.1404C46.0582 24.0935 46.1926 24.0089 46.2995 23.8949C46.4064 23.7809 46.4821 23.6413 46.5192 23.4895C46.5564 23.3377 46.5539 23.179 46.5118 23.0285C46.4697 22.878 46.3896 22.7408 46.2791 22.6304L40.9218 17.2731ZM33.2727 9.09126C33.2727 8.86035 33.2627 8.62944 33.2455 8.40035L43.9273 11.6967L39.3909 16.2331L31.9791 13.7622C32.8239 12.3504 33.2709 10.7364 33.2727 9.09126ZM17.3027 6.72762C17.8615 5.09909 18.9799 3.72159 20.4589 2.84024C21.938 1.95889 23.6817 1.63085 25.3799 1.91448C27.0781 2.19812 28.6206 3.07503 29.733 4.38919C30.8453 5.70336 31.4554 7.36953 31.4546 9.09126C31.4546 11.0201 30.6883 12.87 29.3244 14.2339C27.9605 15.5978 26.1107 16.364 24.1818 16.364C23.0241 16.363 21.8833 16.0858 20.8542 15.5554C19.825 15.025 18.9373 14.2568 18.2646 13.3145C17.592 12.3722 17.1538 11.2831 16.9865 10.1375C16.8192 8.99189 16.9276 7.82291 17.3027 6.72762ZM2.61456 11.6931L15.1873 7.77308C15.1237 8.2096 15.0915 8.65013 15.0909 9.09126C15.0887 10.5389 15.4341 11.9659 16.0982 13.2522L7.15456 16.2331L2.61456 11.6931ZM4.43911 23.1576L7.31365 18.364L21.9091 23.2313L19.0346 28.0231L4.43911 23.1576ZM22.3637 44.3249L9.63638 39.5522V26.8058C19.65 30.1267 19.1609 30.0249 19.44 30.0249C19.5969 30.0249 19.7511 29.9842 19.8876 29.907C20.0241 29.8297 20.1383 29.7185 20.2191 29.584L22.3637 26.0094V44.3249ZM23.2727 21.7694L9.78366 17.2731L17.1291 14.8249C17.9484 15.8325 18.974 16.6528 20.1369 17.2307C21.2998 17.8086 22.573 18.1307 23.8708 18.1752C25.1687 18.2198 26.461 17.9857 27.6608 17.4889C28.8606 16.992 29.94 16.2439 30.8264 15.2949L36.7618 17.2731L23.2727 21.7694ZM38.7273 39.5267L24.1818 44.3758V25.3194L27.4046 29.3476C27.5191 29.4907 27.6743 29.5959 27.8496 29.6493C28.025 29.7027 28.2124 29.7018 28.3873 29.6467L38.7273 26.3976V39.5267ZM28.4355 27.7276L24.7991 23.1822L39.3909 18.3131L43.9364 22.8585L28.4355 27.7276ZM19.9555 35.6549L17.9337 34.8967C17.7104 34.8226 17.4672 34.838 17.255 34.9395C17.0428 35.041 16.8783 35.2208 16.7959 35.4412C16.7135 35.6615 16.7197 35.9051 16.8132 36.1209C16.9067 36.3368 17.0802 36.508 17.2973 36.5985L19.3191 37.3567C19.4319 37.4038 19.5531 37.4276 19.6753 37.4268C19.7976 37.426 19.9184 37.4005 20.0306 37.3519C20.1428 37.3033 20.244 37.2326 20.3282 37.144C20.4124 37.0553 20.4779 36.9506 20.5207 36.8361C20.5635 36.7216 20.5828 36.5997 20.5774 36.4775C20.572 36.3554 20.542 36.2356 20.4892 36.1253C20.4365 36.0151 20.362 35.9166 20.2703 35.8357C20.1786 35.7549 20.0715 35.6934 19.9555 35.6549ZM19.9555 39.5385L14.5009 37.4931C14.2777 37.419 14.0344 37.4343 13.8223 37.5359C13.6101 37.6374 13.4455 37.8172 13.3631 38.0375C13.2808 38.2578 13.287 38.5015 13.3805 38.7173C13.474 38.9331 13.6475 39.1043 13.8646 39.1949L19.3191 41.2404C19.421 41.2791 19.5292 41.2988 19.6382 41.2985C19.851 41.2983 20.057 41.2234 20.2203 41.087C20.3836 40.9505 20.4938 40.761 20.5318 40.5516C20.5698 40.3422 20.5331 40.1261 20.4281 39.941C20.3231 39.7559 20.1565 39.6134 19.9573 39.5385H19.9555ZM29.37 5.72035C29.1995 5.54992 28.9683 5.45418 28.7273 5.45418C28.4862 5.45418 28.255 5.54992 28.0846 5.72035L23.2727 10.5331L22.0973 9.35762C21.9258 9.19202 21.6962 9.10039 21.4578 9.10246C21.2195 9.10454 20.9915 9.20014 20.8229 9.3687C20.6544 9.53725 20.5588 9.76526 20.5567 10.0036C20.5546 10.242 20.6462 10.4716 20.8118 10.6431L22.63 12.4613C22.8005 12.6317 23.0317 12.7274 23.2727 12.7274C23.5138 12.7274 23.745 12.6317 23.9155 12.4613L29.37 7.00671C29.5404 6.83623 29.6362 6.60504 29.6362 6.36399C29.6362 6.12293 29.5404 5.89174 29.37 5.72126V5.72035Z" fill="url(#paint0_linear_16_27)"/>
<defs>
<linearGradient id="paint0_linear_16_27" x1="48.0483" y1="-0.00195312" x2="0.0088571" y2="48.0483" gradientUnits="userSpaceOnUse">
<stop stop-color="#F38611"/>
<stop offset="1" stop-color="#8B5A91"/>
</linearGradient>
</defs>
</svg>
