<svg width="47" height="47" viewBox="0 0 47 47" fill="none" xmlns="http://www.w3.org/2000/svg">
<path d="M46.0573 28.7564C45.9127 28.699 45.7544 28.6861 45.6024 28.7193C45.4505 28.7525 45.312 28.8303 45.2045 28.9427L41.8909 32.4255V11.7391L45.0527 8.32637C45.1219 8.25154 45.1756 8.16381 45.2109 8.0682C45.2461 7.97259 45.2622 7.87097 45.2581 7.76914C45.2541 7.66732 45.23 7.5673 45.1873 7.47479C45.1445 7.38228 45.084 7.2991 45.0091 7.23001L43.8745 6.17001L45.4545 4.46364C45.5242 4.38874 45.5784 4.3008 45.614 4.20489C45.6495 4.10898 45.6658 4.00698 45.6618 3.90476C45.6579 3.80254 45.6337 3.70211 45.5908 3.60925C45.5479 3.51639 45.4871 3.43292 45.4118 3.36364L42 0.206369C41.9253 0.137167 41.8377 0.0833724 41.7422 0.0480624C41.6467 0.0127523 41.5452 -0.00338 41.4434 0.000588524C41.3417 0.00455705 41.2417 0.0285485 41.1492 0.0711902C41.0568 0.113832 40.9736 0.174287 40.9045 0.249096L35.3873 6.20455H8.53364C8.53219 5.1762 8.12304 4.19037 7.39588 3.46321C6.66873 2.73606 5.6829 2.3269 4.65455 2.32546H3.87909C2.85066 2.32666 1.8647 2.73574 1.13749 3.46295C0.410278 4.19016 0.00120298 5.17612 0 6.20455L0 39.5618C-7.00311e-08 39.6637 0.0200877 39.7646 0.0591148 39.8588C0.0981419 39.9529 0.155343 40.0385 0.227447 40.1105C0.299551 40.1825 0.385143 40.2396 0.479331 40.2785C0.573518 40.3174 0.674453 40.3374 0.776364 40.3373H12.5191L10.89 42.2936C10.759 42.4518 10.696 42.6553 10.7148 42.8597C10.7335 43.0642 10.8325 43.2529 10.99 43.3846L14.5673 46.3636C14.7253 46.4948 14.9289 46.558 15.1334 46.5392C15.3379 46.5205 15.5267 46.4214 15.6582 46.2636L19.6291 41.4936C19.9028 41.1626 20.0791 40.7619 20.1382 40.3364H34.3545L29.6918 45.2327C29.5867 45.3428 29.5162 45.4812 29.4891 45.631C29.4621 45.7807 29.4796 45.9351 29.5395 46.075C29.5995 46.2148 29.6992 46.334 29.8264 46.4177C29.9535 46.5013 30.1024 46.5457 30.2545 46.5455H45.7691C45.871 46.5456 45.9719 46.5256 46.0661 46.4867C46.1603 46.4478 46.2459 46.3907 46.318 46.3187C46.3901 46.2466 46.4473 46.1611 46.4863 46.067C46.5254 45.9728 46.5455 45.8719 46.5455 45.77V29.4773C46.5455 29.3221 46.4989 29.1705 46.4119 29.042C46.3249 28.9135 46.2014 28.814 46.0573 28.7564ZM43.3909 7.83364L41.8909 9.45455V8.31455L42.8182 7.30637L43.3909 7.83364ZM40.3391 7.69546V7.70637L33.7791 14.7973L31.5 12.6891L39.4036 4.14364L41.6818 6.25546L40.3491 7.69546H40.3391ZM32.2891 15.5309L30.5045 16.0509L30.8855 14.2327L32.2891 15.5309ZM41.5118 1.87001L43.7891 3.97728L42.7355 5.11819L40.4545 3.0091L41.5118 1.87001ZM3.87545 3.87728H4.65455C5.27178 3.87728 5.86373 4.12247 6.30018 4.55892C6.73662 4.99537 6.98182 5.58732 6.98182 6.20455V35.7036C6.31426 35.1906 5.49647 34.9114 4.65455 34.9091H3.87909C3.03693 34.9118 2.21908 35.1916 1.55182 35.7055V6.20455C1.55182 5.58732 1.79701 4.99537 2.23346 4.55892C2.66991 4.12247 3.26186 3.87728 3.87909 3.87728H3.87545ZM3.87545 36.4591H4.65455C5.27178 36.4591 5.86373 36.7043 6.30018 37.1407C6.73662 37.5772 6.98182 38.1691 6.98182 38.7864H1.55182C1.55182 38.1691 1.79701 37.5772 2.23346 37.1407C2.66991 36.7043 3.26186 36.4591 3.87909 36.4591H3.87545ZM18.4355 40.5018L17.9391 41.0982L15.5545 39.1127L16.05 38.5164C16.1817 38.3588 16.3704 38.2599 16.5748 38.2411C16.7793 38.2224 16.9828 38.2854 17.1409 38.4164L18.3336 39.4064C18.4915 39.5378 18.5908 39.7264 18.6097 39.931C18.6286 40.1355 18.5656 40.3392 18.4345 40.4973L18.4355 40.5018ZM14.9609 44.6755L12.58 42.6909L14.5645 40.3055L16.95 42.2909L14.9609 44.6755ZM19.8182 38.7864C19.6893 38.5717 19.5263 38.3794 19.3355 38.2173L18.1436 37.2246C17.6691 36.8297 17.0572 36.6396 16.4424 36.6958C15.8277 36.7521 15.2605 37.0502 14.8655 37.5246L13.8127 38.7864H8.54V7.75637H33.9582L29.8409 12.2046C29.7823 12.2716 29.7355 12.3481 29.7027 12.4309C29.6936 12.4527 29.6864 12.4736 29.6791 12.4973C29.6718 12.5209 29.66 12.5436 29.6536 12.5691L28.7218 17C28.6943 17.1311 28.7012 17.2672 28.7419 17.3948C28.7826 17.5225 28.8557 17.6374 28.954 17.7284C29.0523 17.8194 29.1726 17.8834 29.303 17.9141C29.4334 17.9448 29.5696 17.9412 29.6982 17.9036L34.0427 16.6364C34.0627 16.63 34.08 16.6182 34.0991 16.6118C34.1182 16.6055 34.1391 16.5946 34.16 16.5846C34.2467 16.5444 34.3256 16.4889 34.3927 16.4209L40.3391 9.99364V34.0536L35.8327 38.7864H19.8182ZM45 44.9918H32.0645L44.9936 31.4164L45 44.9918ZM36.5255 42.9618C36.5843 43.1036 36.6839 43.2247 36.8115 43.31C36.9392 43.3953 37.0892 43.4408 37.2427 43.4409H42.6727C42.7746 43.441 42.8756 43.4211 42.9698 43.3821C43.0639 43.3432 43.1495 43.2861 43.2216 43.2141C43.2937 43.1421 43.3509 43.0566 43.39 42.9624C43.429 42.8683 43.4491 42.7674 43.4491 42.6655V37.2346C43.4487 37.0813 43.4028 36.9315 43.3174 36.8043C43.2319 36.6771 43.1107 36.578 42.9689 36.5196C42.8272 36.4613 42.6713 36.4462 42.521 36.4764C42.3708 36.5065 42.2328 36.5806 42.1245 36.6891L36.6945 42.1191C36.5852 42.2265 36.5102 42.3638 36.479 42.5138C36.4477 42.6639 36.4617 42.8198 36.5191 42.9618H36.5255ZM41.8973 39.1073V41.8891H39.1091L41.8973 39.1073ZM34.1327 29.4773H28.7027V20.9436C28.7008 20.739 28.6189 20.5432 28.4745 20.3982L23.8182 15.74C23.6728 15.5947 23.4756 15.513 23.27 15.513C23.0644 15.513 22.8672 15.5947 22.7218 15.74L18.0673 20.3946C17.9234 20.5398 17.8422 20.7356 17.8409 20.94V29.4736H12.4127C12.3086 29.4701 12.2048 29.4875 12.1076 29.5249C12.0103 29.5623 11.9216 29.6189 11.8467 29.6913C11.7717 29.7637 11.7122 29.8504 11.6715 29.9463C11.6308 30.0422 11.6098 30.1454 11.6098 30.2496C11.6098 30.3537 11.6308 30.4569 11.6715 30.5528C11.7122 30.6487 11.7717 30.7354 11.8467 30.8078C11.9216 30.8802 12.0103 30.9368 12.1076 30.9742C12.2048 31.0116 12.3086 31.029 12.4127 31.0255H34.1336C34.3348 31.0186 34.5255 30.9338 34.6654 30.789C34.8052 30.6443 34.8834 30.4509 34.8834 30.2496C34.8834 30.0482 34.8052 29.8548 34.6654 29.7101C34.5255 29.5653 34.3348 29.4805 34.1336 29.4736L34.1327 29.4773ZM23.2727 17.3864L26.0545 20.1682H20.4909L23.2727 17.3864ZM19.3936 21.7191H27.1518V29.4773H19.3936V21.7191ZM22.4964 12.4109H24.0491V13.9618H22.4964V12.4109ZM22.4964 32.58H24.0491V34.1318H22.4964V32.58Z" fill="url(#paint0_linear_16_11)"/>
<defs>
<linearGradient id="paint0_linear_16_11" x1="0" y1="23.2727" x2="46.5455" y2="23.2727" gradientUnits="userSpaceOnUse">
<stop stop-color="#7A4281"/>
<stop offset="1" stop-color="#E48023"/>
</linearGradient>
</defs>
</svg>
