<svg width="47" height="41" viewBox="0 0 47 41" fill="none" xmlns="http://www.w3.org/2000/svg">
<path d="M3.14814 34.1823H4.69996V32.6277H3.14814C2.94439 32.6277 2.74265 32.5876 2.55442 32.5096C2.3662 32.4316 2.19519 32.3173 2.05116 32.1731C1.90713 32.029 1.79291 31.858 1.71502 31.6697C1.63714 31.4814 1.59711 31.2796 1.59723 31.0759V3.14863C1.59723 2.7373 1.76063 2.34282 2.05148 2.05197C2.34233 1.76112 2.73681 1.59772 3.14814 1.59772H37.2818C37.4855 1.5976 37.6873 1.63762 37.8756 1.71551C38.0638 1.7934 38.2349 1.90762 38.379 2.05165C38.5231 2.19567 38.6375 2.36668 38.7155 2.55491C38.7934 2.74313 38.8336 2.94488 38.8336 3.14863V4.70044H40.3845V3.14863C40.3845 2.32573 40.0576 1.53654 39.4757 0.954666C38.8939 0.372792 38.1047 0.0458984 37.2818 0.0458984H3.14814C2.32524 0.0458984 1.53605 0.372792 0.954179 0.954666C0.372305 1.53654 0.0454114 2.32573 0.0454114 3.14863V31.0759C0.0450531 31.4836 0.125036 31.8874 0.280792 32.2642C0.436547 32.641 0.665021 32.9835 0.953159 33.2719C1.2413 33.5604 1.58345 33.7893 1.96008 33.9455C2.3367 34.1017 2.74041 34.1821 3.14814 34.1823ZM3.14814 3.15135H4.69996V4.70044H3.14814V3.15135ZM6.25178 3.15135H7.80268V4.70044H6.25178V3.15135ZM9.3545 3.15135H10.909V4.70044H9.3545V3.15135ZM43.4881 6.25226H9.3545C8.53161 6.25226 7.74242 6.57916 7.16054 7.16103C6.57867 7.7429 6.25178 8.5321 6.25178 9.35499V37.2823C6.25178 38.1052 6.57867 38.8943 7.16054 39.4762C7.74242 40.0581 8.53161 40.385 9.3545 40.385H43.4881C44.311 40.385 45.1002 40.0581 45.6821 39.4762C46.264 38.8943 46.5909 38.1052 46.5909 37.2823V9.35499C46.5909 8.5321 46.264 7.7429 45.6821 7.16103C45.1002 6.57916 44.311 6.25226 43.4881 6.25226ZM45.039 37.2823C45.0392 37.486 44.9991 37.6878 44.9213 37.876C44.8434 38.0643 44.7291 38.2354 44.5851 38.3795C44.4411 38.5236 44.2701 38.6379 44.0819 38.7159C43.8936 38.7939 43.6919 38.8341 43.4881 38.8341H9.3545C8.94293 38.8341 8.54822 38.6706 8.2572 38.3796C7.96618 38.0885 7.80268 37.6938 7.80268 37.2823V9.35499C7.80268 9.1512 7.84282 8.94941 7.92081 8.76113C7.9988 8.57286 8.1131 8.40179 8.2572 8.25769C8.4013 8.11359 8.57237 7.99928 8.76065 7.9213C8.94892 7.84331 9.15071 7.80317 9.3545 7.80317H43.4881C43.6919 7.80317 43.8936 7.84332 44.0819 7.92131C44.2701 7.99931 44.4411 8.11363 44.5851 8.25774C44.7291 8.40186 44.8434 8.57293 44.9213 8.7612C44.9991 8.94947 45.0392 9.15125 45.039 9.35499V37.2823ZM9.3545 9.35499H10.909V10.9095H9.3545V9.35499ZM12.4572 9.35499H14.009V10.9095H12.4545L12.4572 9.35499ZM15.5609 9.35499H17.1118V10.9095H15.5609V9.35499ZM9.3545 12.455H43.4881V14.0095H9.3545V12.455Z" fill="url(#paint0_linear_16_23)"/>
<g clip-path="url(#clip0_16_23)">
<path d="M30.8125 21.1875H21.1875C20.4292 21.1875 19.8125 21.8042 19.8125 22.5625V29.4375C19.8125 30.1958 20.4292 30.8125 21.1875 30.8125H30.8125C31.5708 30.8125 32.1875 30.1958 32.1875 29.4375V22.5625C32.1875 21.8042 31.5708 21.1875 30.8125 21.1875ZM27.0312 21.875V24.2555L26.2781 23.2198C26.2462 23.1759 26.2044 23.1401 26.1561 23.1155C26.1077 23.0909 26.0542 23.0781 26 23.0781C25.9458 23.0781 25.8923 23.0909 25.8439 23.1155C25.7956 23.1401 25.7538 23.1759 25.7219 23.2198L24.9688 24.2555V21.875H27.0312ZM31.5 29.4375C31.5 29.8167 31.1917 30.125 30.8125 30.125H21.1875C20.8083 30.125 20.5 29.8167 20.5 29.4375V22.5625C20.5 22.1833 20.8083 21.875 21.1875 21.875H24.2812V25.3125C24.2812 25.3851 24.3042 25.4558 24.3469 25.5146C24.3895 25.5733 24.4497 25.617 24.5187 25.6395C24.5878 25.6619 24.6622 25.6619 24.7312 25.6395C24.8002 25.6171 24.8604 25.5734 24.9031 25.5146L26 24.0063L27.0969 25.5146C27.1396 25.5734 27.1998 25.6171 27.2688 25.6395C27.3378 25.6619 27.4122 25.6619 27.4813 25.6395C27.5503 25.617 27.6105 25.5733 27.6531 25.5146C27.6958 25.4558 27.7188 25.3851 27.7188 25.3125V21.875H30.8125C31.1917 21.875 31.5 22.1833 31.5 22.5625V29.4375ZM28.3055 27.8195C28.3384 27.8512 28.3646 27.8891 28.3826 27.931C28.4006 27.973 28.4101 28.0181 28.4105 28.0637C28.4109 28.1094 28.4022 28.1546 28.3849 28.1969C28.3676 28.2391 28.3421 28.2775 28.3098 28.3098C28.2775 28.3421 28.2391 28.3676 28.1969 28.3849C28.1546 28.4022 28.1094 28.4109 28.0637 28.4105C28.0181 28.4101 27.973 28.4006 27.931 28.3826C27.8891 28.3646 27.8512 28.3384 27.8195 28.3055L27.7188 28.2048V29.0938C27.7188 29.1849 27.6825 29.2724 27.6181 29.3368C27.5536 29.4013 27.4662 29.4375 27.375 29.4375C27.2838 29.4375 27.1964 29.4013 27.1319 29.3368C27.0675 29.2724 27.0312 29.1849 27.0312 29.0938V28.2048L26.9305 28.3055C26.8988 28.3384 26.8609 28.3646 26.819 28.3826C26.777 28.4006 26.7319 28.4101 26.6863 28.4105C26.6406 28.4109 26.5954 28.4022 26.5531 28.3849C26.5109 28.3676 26.4725 28.3421 26.4402 28.3098C26.4079 28.2775 26.3824 28.2391 26.3651 28.1969C26.3478 28.1546 26.3391 28.1094 26.3395 28.0637C26.3399 28.0181 26.3494 27.973 26.3674 27.931C26.3854 27.8891 26.4116 27.8512 26.4445 27.8195L27.132 27.132C27.1964 27.0675 27.2838 27.0313 27.375 27.0313C27.4662 27.0313 27.5536 27.0675 27.618 27.132L28.3055 27.8195ZM30.7118 27.8195C30.7446 27.8512 30.7708 27.8891 30.7888 27.931C30.8068 27.973 30.8163 28.0181 30.8167 28.0637C30.8171 28.1094 30.8084 28.1546 30.7911 28.1969C30.7738 28.2391 30.7483 28.2775 30.716 28.3098C30.6838 28.3421 30.6454 28.3676 30.6031 28.3849C30.5609 28.4022 30.5156 28.4109 30.47 28.4105C30.4243 28.4101 30.3792 28.4006 30.3373 28.3826C30.2954 28.3646 30.2574 28.3384 30.2257 28.3055L30.125 28.2048V29.0938C30.125 29.1849 30.0888 29.2724 30.0243 29.3368C29.9599 29.4013 29.8724 29.4375 29.7812 29.4375C29.6901 29.4375 29.6026 29.4013 29.5382 29.3368C29.4737 29.2724 29.4375 29.1849 29.4375 29.0938V28.2048L29.3368 28.3055C29.3051 28.3384 29.2671 28.3646 29.2252 28.3826C29.1833 28.4006 29.1382 28.4101 29.0925 28.4105C29.0469 28.4109 29.0016 28.4022 28.9594 28.3849C28.9171 28.3676 28.8787 28.3421 28.8465 28.3098C28.8142 28.2775 28.7887 28.2391 28.7714 28.1969C28.7541 28.1546 28.7454 28.1094 28.7458 28.0637C28.7462 28.0181 28.7557 27.973 28.7737 27.931C28.7917 27.8891 28.8179 27.8512 28.8507 27.8195L29.5382 27.132C29.6027 27.0675 29.6901 27.0313 29.7812 27.0313C29.8724 27.0313 29.9598 27.0675 30.0243 27.132L30.7118 27.8195ZM23.25 24.2812C23.25 24.3724 23.2138 24.4599 23.1493 24.5243C23.0849 24.5888 22.9974 24.625 22.9062 24.625H21.5312C21.4401 24.625 21.3526 24.5888 21.2882 24.5243C21.2237 24.4599 21.1875 24.3724 21.1875 24.2812C21.1875 24.1901 21.2237 24.1026 21.2882 24.0382C21.3526 23.9737 21.4401 23.9375 21.5312 23.9375H22.9062C22.9974 23.9375 23.0849 23.9737 23.1493 24.0382C23.2138 24.1026 23.25 24.1901 23.25 24.2812ZM23.25 23.25C23.25 23.3412 23.2138 23.4286 23.1493 23.4931C23.0849 23.5575 22.9974 23.5938 22.9062 23.5938H21.5312C21.4401 23.5938 21.3526 23.5575 21.2882 23.4931C21.2237 23.4286 21.1875 23.3412 21.1875 23.25C21.1875 23.1588 21.2237 23.0714 21.2882 23.0069C21.3526 22.9425 21.4401 22.9062 21.5312 22.9062H22.9062C22.9974 22.9062 23.0849 22.9425 23.1493 23.0069C23.2138 23.0714 23.25 23.1588 23.25 23.25ZM35.9688 25.6562H34.9289C34.7515 21.0012 30.9988 17.2481 26.3438 17.0711V16.0312C26.3438 15.9401 26.3075 15.8526 26.2431 15.7882C26.1786 15.7237 26.0912 15.6875 26 15.6875C25.9088 15.6875 25.8214 15.7237 25.7569 15.7882C25.6925 15.8526 25.6562 15.9401 25.6562 16.0312V17.0711C21.0012 17.2485 17.2481 21.0012 17.0711 25.6562H16.0312C15.9401 25.6562 15.8526 25.6925 15.7882 25.7569C15.7237 25.8214 15.6875 25.9088 15.6875 26C15.6875 26.0912 15.7237 26.1786 15.7882 26.2431C15.8526 26.3075 15.9401 26.3438 16.0312 26.3438H17.0711C17.2485 30.9988 21.0012 34.7519 25.6562 34.9289V35.9688C25.6562 36.0599 25.6925 36.1474 25.7569 36.2118C25.8214 36.2763 25.9088 36.3125 26 36.3125C26.0912 36.3125 26.1786 36.2763 26.2431 36.2118C26.3075 36.1474 26.3438 36.0599 26.3438 35.9688V34.9289C30.9988 34.7515 34.7519 30.9988 34.9289 26.3438H35.9688C36.0599 26.3438 36.1474 26.3075 36.2118 26.2431C36.2763 26.1786 36.3125 26.0912 36.3125 26C36.3125 25.9088 36.2763 25.8214 36.2118 25.7569C36.1474 25.6925 36.0599 25.6562 35.9688 25.6562ZM26 34.25C21.4512 34.25 17.75 30.5488 17.75 26C17.75 21.4512 21.4512 17.75 26 17.75C30.5488 17.75 34.25 21.4512 34.25 26C34.25 30.5488 30.5488 34.25 26 34.25ZM35.625 32.5312V33.9062C35.625 34.854 34.854 35.625 33.9062 35.625H32.5312C32.4401 35.625 32.3526 35.5888 32.2882 35.5243C32.2237 35.4599 32.1875 35.3724 32.1875 35.2812C32.1875 35.1901 32.2237 35.1026 32.2882 35.0382C32.3526 34.9737 32.4401 34.9375 32.5312 34.9375H33.9062C34.4748 34.9375 34.9375 34.4748 34.9375 33.9062V32.5312C34.9375 32.4401 34.9737 32.3526 35.0382 32.2882C35.1026 32.2237 35.1901 32.1875 35.2812 32.1875C35.3724 32.1875 35.4599 32.2237 35.5243 32.2882C35.5888 32.3526 35.625 32.4401 35.625 32.5312ZM19.8125 35.2812C19.8125 35.3724 19.7763 35.4599 19.7118 35.5243C19.6474 35.5888 19.5599 35.625 19.4688 35.625H18.0938C17.146 35.625 16.375 34.854 16.375 33.9062V32.5312C16.375 32.4401 16.4112 32.3526 16.4757 32.2882C16.5401 32.2237 16.6276 32.1875 16.7188 32.1875C16.8099 32.1875 16.8974 32.2237 16.9618 32.2882C17.0263 32.3526 17.0625 32.4401 17.0625 32.5312V33.9062C17.0625 34.4748 17.5252 34.9375 18.0938 34.9375H19.4688C19.5599 34.9375 19.6474 34.9737 19.7118 35.0382C19.7763 35.1026 19.8125 35.1901 19.8125 35.2812ZM32.1875 16.7188C32.1875 16.6276 32.2237 16.5401 32.2882 16.4757C32.3526 16.4112 32.4401 16.375 32.5312 16.375H33.9062C34.854 16.375 35.625 17.146 35.625 18.0938V19.4688C35.625 19.5599 35.5888 19.6474 35.5243 19.7118C35.4599 19.7763 35.3724 19.8125 35.2812 19.8125C35.1901 19.8125 35.1026 19.7763 35.0382 19.7118C34.9737 19.6474 34.9375 19.5599 34.9375 19.4688V18.0938C34.9375 17.5252 34.4748 17.0625 33.9062 17.0625H32.5312C32.4401 17.0625 32.3526 17.0263 32.2882 16.9618C32.2237 16.8974 32.1875 16.8099 32.1875 16.7188ZM16.375 19.4688V18.0938C16.375 17.146 17.146 16.375 18.0938 16.375H19.4688C19.5599 16.375 19.6474 16.4112 19.7118 16.4757C19.7763 16.5401 19.8125 16.6276 19.8125 16.7188C19.8125 16.8099 19.7763 16.8974 19.7118 16.9618C19.6474 17.0263 19.5599 17.0625 19.4688 17.0625H18.0938C17.5252 17.0625 17.0625 17.5252 17.0625 18.0938V19.4688C17.0625 19.5599 17.0263 19.6474 16.9618 19.7118C16.8974 19.7763 16.8099 19.8125 16.7188 19.8125C16.6276 19.8125 16.5401 19.7763 16.4757 19.7118C16.4112 19.6474 16.375 19.5599 16.375 19.4688Z" fill="black"/>
<path d="M30.8125 21.1875H21.1875C20.4292 21.1875 19.8125 21.8042 19.8125 22.5625V29.4375C19.8125 30.1958 20.4292 30.8125 21.1875 30.8125H30.8125C31.5708 30.8125 32.1875 30.1958 32.1875 29.4375V22.5625C32.1875 21.8042 31.5708 21.1875 30.8125 21.1875ZM27.0312 21.875V24.2555L26.2781 23.2198C26.2462 23.1759 26.2044 23.1401 26.1561 23.1155C26.1077 23.0909 26.0542 23.0781 26 23.0781C25.9458 23.0781 25.8923 23.0909 25.8439 23.1155C25.7956 23.1401 25.7538 23.1759 25.7219 23.2198L24.9688 24.2555V21.875H27.0312ZM31.5 29.4375C31.5 29.8167 31.1917 30.125 30.8125 30.125H21.1875C20.8083 30.125 20.5 29.8167 20.5 29.4375V22.5625C20.5 22.1833 20.8083 21.875 21.1875 21.875H24.2812V25.3125C24.2812 25.3851 24.3042 25.4558 24.3469 25.5146C24.3895 25.5733 24.4497 25.617 24.5187 25.6395C24.5878 25.6619 24.6622 25.6619 24.7312 25.6395C24.8002 25.6171 24.8604 25.5734 24.9031 25.5146L26 24.0063L27.0969 25.5146C27.1396 25.5734 27.1998 25.6171 27.2688 25.6395C27.3378 25.6619 27.4122 25.6619 27.4813 25.6395C27.5503 25.617 27.6105 25.5733 27.6531 25.5146C27.6958 25.4558 27.7188 25.3851 27.7188 25.3125V21.875H30.8125C31.1917 21.875 31.5 22.1833 31.5 22.5625V29.4375ZM28.3055 27.8195C28.3384 27.8512 28.3646 27.8891 28.3826 27.931C28.4006 27.973 28.4101 28.0181 28.4105 28.0637C28.4109 28.1094 28.4022 28.1546 28.3849 28.1969C28.3676 28.2391 28.3421 28.2775 28.3098 28.3098C28.2775 28.3421 28.2391 28.3676 28.1969 28.3849C28.1546 28.4022 28.1094 28.4109 28.0637 28.4105C28.0181 28.4101 27.973 28.4006 27.931 28.3826C27.8891 28.3646 27.8512 28.3384 27.8195 28.3055L27.7188 28.2048V29.0938C27.7188 29.1849 27.6825 29.2724 27.6181 29.3368C27.5536 29.4013 27.4662 29.4375 27.375 29.4375C27.2838 29.4375 27.1964 29.4013 27.1319 29.3368C27.0675 29.2724 27.0312 29.1849 27.0312 29.0938V28.2048L26.9305 28.3055C26.8988 28.3384 26.8609 28.3646 26.819 28.3826C26.777 28.4006 26.7319 28.4101 26.6863 28.4105C26.6406 28.4109 26.5954 28.4022 26.5531 28.3849C26.5109 28.3676 26.4725 28.3421 26.4402 28.3098C26.4079 28.2775 26.3824 28.2391 26.3651 28.1969C26.3478 28.1546 26.3391 28.1094 26.3395 28.0637C26.3399 28.0181 26.3494 27.973 26.3674 27.931C26.3854 27.8891 26.4116 27.8512 26.4445 27.8195L27.132 27.132C27.1964 27.0675 27.2838 27.0313 27.375 27.0313C27.4662 27.0313 27.5536 27.0675 27.618 27.132L28.3055 27.8195ZM30.7118 27.8195C30.7446 27.8512 30.7708 27.8891 30.7888 27.931C30.8068 27.973 30.8163 28.0181 30.8167 28.0637C30.8171 28.1094 30.8084 28.1546 30.7911 28.1969C30.7738 28.2391 30.7483 28.2775 30.716 28.3098C30.6838 28.3421 30.6454 28.3676 30.6031 28.3849C30.5609 28.4022 30.5156 28.4109 30.47 28.4105C30.4243 28.4101 30.3792 28.4006 30.3373 28.3826C30.2954 28.3646 30.2574 28.3384 30.2257 28.3055L30.125 28.2048V29.0938C30.125 29.1849 30.0888 29.2724 30.0243 29.3368C29.9599 29.4013 29.8724 29.4375 29.7812 29.4375C29.6901 29.4375 29.6026 29.4013 29.5382 29.3368C29.4737 29.2724 29.4375 29.1849 29.4375 29.0938V28.2048L29.3368 28.3055C29.3051 28.3384 29.2671 28.3646 29.2252 28.3826C29.1833 28.4006 29.1382 28.4101 29.0925 28.4105C29.0469 28.4109 29.0016 28.4022 28.9594 28.3849C28.9171 28.3676 28.8787 28.3421 28.8465 28.3098C28.8142 28.2775 28.7887 28.2391 28.7714 28.1969C28.7541 28.1546 28.7454 28.1094 28.7458 28.0637C28.7462 28.0181 28.7557 27.973 28.7737 27.931C28.7917 27.8891 28.8179 27.8512 28.8507 27.8195L29.5382 27.132C29.6027 27.0675 29.6901 27.0313 29.7812 27.0313C29.8724 27.0313 29.9598 27.0675 30.0243 27.132L30.7118 27.8195ZM23.25 24.2812C23.25 24.3724 23.2138 24.4599 23.1493 24.5243C23.0849 24.5888 22.9974 24.625 22.9062 24.625H21.5312C21.4401 24.625 21.3526 24.5888 21.2882 24.5243C21.2237 24.4599 21.1875 24.3724 21.1875 24.2812C21.1875 24.1901 21.2237 24.1026 21.2882 24.0382C21.3526 23.9737 21.4401 23.9375 21.5312 23.9375H22.9062C22.9974 23.9375 23.0849 23.9737 23.1493 24.0382C23.2138 24.1026 23.25 24.1901 23.25 24.2812ZM23.25 23.25C23.25 23.3412 23.2138 23.4286 23.1493 23.4931C23.0849 23.5575 22.9974 23.5938 22.9062 23.5938H21.5312C21.4401 23.5938 21.3526 23.5575 21.2882 23.4931C21.2237 23.4286 21.1875 23.3412 21.1875 23.25C21.1875 23.1588 21.2237 23.0714 21.2882 23.0069C21.3526 22.9425 21.4401 22.9062 21.5312 22.9062H22.9062C22.9974 22.9062 23.0849 22.9425 23.1493 23.0069C23.2138 23.0714 23.25 23.1588 23.25 23.25ZM35.9688 25.6562H34.9289C34.7515 21.0012 30.9988 17.2481 26.3438 17.0711V16.0312C26.3438 15.9401 26.3075 15.8526 26.2431 15.7882C26.1786 15.7237 26.0912 15.6875 26 15.6875C25.9088 15.6875 25.8214 15.7237 25.7569 15.7882C25.6925 15.8526 25.6562 15.9401 25.6562 16.0312V17.0711C21.0012 17.2485 17.2481 21.0012 17.0711 25.6562H16.0312C15.9401 25.6562 15.8526 25.6925 15.7882 25.7569C15.7237 25.8214 15.6875 25.9088 15.6875 26C15.6875 26.0912 15.7237 26.1786 15.7882 26.2431C15.8526 26.3075 15.9401 26.3438 16.0312 26.3438H17.0711C17.2485 30.9988 21.0012 34.7519 25.6562 34.9289V35.9688C25.6562 36.0599 25.6925 36.1474 25.7569 36.2118C25.8214 36.2763 25.9088 36.3125 26 36.3125C26.0912 36.3125 26.1786 36.2763 26.2431 36.2118C26.3075 36.1474 26.3438 36.0599 26.3438 35.9688V34.9289C30.9988 34.7515 34.7519 30.9988 34.9289 26.3438H35.9688C36.0599 26.3438 36.1474 26.3075 36.2118 26.2431C36.2763 26.1786 36.3125 26.0912 36.3125 26C36.3125 25.9088 36.2763 25.8214 36.2118 25.7569C36.1474 25.6925 36.0599 25.6562 35.9688 25.6562ZM26 34.25C21.4512 34.25 17.75 30.5488 17.75 26C17.75 21.4512 21.4512 17.75 26 17.75C30.5488 17.75 34.25 21.4512 34.25 26C34.25 30.5488 30.5488 34.25 26 34.25ZM35.625 32.5312V33.9062C35.625 34.854 34.854 35.625 33.9062 35.625H32.5312C32.4401 35.625 32.3526 35.5888 32.2882 35.5243C32.2237 35.4599 32.1875 35.3724 32.1875 35.2812C32.1875 35.1901 32.2237 35.1026 32.2882 35.0382C32.3526 34.9737 32.4401 34.9375 32.5312 34.9375H33.9062C34.4748 34.9375 34.9375 34.4748 34.9375 33.9062V32.5312C34.9375 32.4401 34.9737 32.3526 35.0382 32.2882C35.1026 32.2237 35.1901 32.1875 35.2812 32.1875C35.3724 32.1875 35.4599 32.2237 35.5243 32.2882C35.5888 32.3526 35.625 32.4401 35.625 32.5312ZM19.8125 35.2812C19.8125 35.3724 19.7763 35.4599 19.7118 35.5243C19.6474 35.5888 19.5599 35.625 19.4688 35.625H18.0938C17.146 35.625 16.375 34.854 16.375 33.9062V32.5312C16.375 32.4401 16.4112 32.3526 16.4757 32.2882C16.5401 32.2237 16.6276 32.1875 16.7188 32.1875C16.8099 32.1875 16.8974 32.2237 16.9618 32.2882C17.0263 32.3526 17.0625 32.4401 17.0625 32.5312V33.9062C17.0625 34.4748 17.5252 34.9375 18.0938 34.9375H19.4688C19.5599 34.9375 19.6474 34.9737 19.7118 35.0382C19.7763 35.1026 19.8125 35.1901 19.8125 35.2812ZM32.1875 16.7188C32.1875 16.6276 32.2237 16.5401 32.2882 16.4757C32.3526 16.4112 32.4401 16.375 32.5312 16.375H33.9062C34.854 16.375 35.625 17.146 35.625 18.0938V19.4688C35.625 19.5599 35.5888 19.6474 35.5243 19.7118C35.4599 19.7763 35.3724 19.8125 35.2812 19.8125C35.1901 19.8125 35.1026 19.7763 35.0382 19.7118C34.9737 19.6474 34.9375 19.5599 34.9375 19.4688V18.0938C34.9375 17.5252 34.4748 17.0625 33.9062 17.0625H32.5312C32.4401 17.0625 32.3526 17.0263 32.2882 16.9618C32.2237 16.8974 32.1875 16.8099 32.1875 16.7188ZM16.375 19.4688V18.0938C16.375 17.146 17.146 16.375 18.0938 16.375H19.4688C19.5599 16.375 19.6474 16.4112 19.7118 16.4757C19.7763 16.5401 19.8125 16.6276 19.8125 16.7188C19.8125 16.8099 19.7763 16.8974 19.7118 16.9618C19.6474 17.0263 19.5599 17.0625 19.4688 17.0625H18.0938C17.5252 17.0625 17.0625 17.5252 17.0625 18.0938V19.4688C17.0625 19.5599 17.0263 19.6474 16.9618 19.7118C16.8974 19.7763 16.8099 19.8125 16.7188 19.8125C16.6276 19.8125 16.5401 19.7763 16.4757 19.7118C16.4112 19.6474 16.375 19.5599 16.375 19.4688Z" fill="url(#paint1_linear_16_23)"/>
</g>
<defs>
<linearGradient id="paint0_linear_16_23" x1="48.0923" y1="0.0458984" x2="0.054847" y2="48.0928" gradientUnits="userSpaceOnUse">
<stop stop-color="#F38611"/>
<stop offset="1" stop-color="#8B5A91"/>
</linearGradient>
<linearGradient id="paint1_linear_16_23" x1="36.9778" y1="15.6875" x2="12.6654" y2="36.7622" gradientUnits="userSpaceOnUse">
<stop stop-color="#F38611"/>
<stop offset="1" stop-color="#8B5A91"/>
</linearGradient>
<clipPath id="clip0_16_23">
<rect width="22" height="22" fill="white" transform="translate(15 15)"/>
</clipPath>
</defs>
</svg>
