<svg width="40" height="44" viewBox="0 0 40 44" fill="none" xmlns="http://www.w3.org/2000/svg">
<path d="M8 29.8182H12.3636V31.2727H8V29.8182ZM4.36364 2.18182H5.81818V3.63636H4.36364V2.18182ZM7.27273 2.18182H10.1818V3.63636H7.27273V2.18182ZM35.6364 27.6945V10.9091C35.6364 9.5589 35.1 8.26401 34.1453 7.30928C33.1905 6.35454 31.8956 5.81818 30.5455 5.81818C29.1953 5.81818 27.9004 6.35454 26.9456 7.30928C25.9909 8.26401 25.4545 9.5589 25.4545 10.9091V37.0909C25.4529 38.4406 24.916 39.7345 23.9616 40.6889C23.0072 41.6432 21.7133 42.1801 20.3636 42.1818H16C14.6503 42.1801 13.3564 41.6432 12.402 40.6889C11.4477 39.7345 10.9108 38.4406 10.9091 37.0909V33.4545H16.7273C17.6913 33.4533 18.6156 33.0698 19.2972 32.3882C19.9789 31.7065 20.3624 30.7822 20.3636 29.8182V3.63636C20.3624 2.67231 19.9789 1.74808 19.2972 1.06639C18.6156 0.384705 17.6913 0.00120281 16.7273 0L3.63636 0C2.67231 0.00120281 1.74808 0.384705 1.06639 1.06639C0.384705 1.74808 0.00120281 2.67231 0 3.63636L0 29.8182C0.00120281 30.7822 0.384705 31.7065 1.06639 32.3882C1.74808 33.0698 2.67231 33.4533 3.63636 33.4545H9.45455V37.0909C9.45623 38.8264 10.1464 40.4902 11.3735 41.7174C12.6007 42.9445 14.2646 43.6347 16 43.6364H20.3636C22.0991 43.6347 23.763 42.9445 24.9901 41.7174C26.2173 40.4902 26.9074 38.8264 26.9091 37.0909V10.9091C26.9091 9.94467 27.2922 9.01974 27.9742 8.33779C28.6561 7.65584 29.581 7.27273 30.5455 7.27273C31.5099 7.27273 32.4348 7.65584 33.1168 8.33779C33.7987 9.01974 34.1818 9.94467 34.1818 10.9091V27.6945C32.9712 27.8693 31.864 28.474 31.0627 29.3982C30.2614 30.3224 29.8196 31.5041 29.8182 32.7273V38.5455C29.8182 39.8956 30.3545 41.1905 31.3093 42.1453C32.264 43.1 33.5589 43.6364 34.9091 43.6364C36.2593 43.6364 37.5542 43.1 38.5089 42.1453C39.4636 41.1905 40 39.8956 40 38.5455V32.7273C39.9986 31.5041 39.5568 30.3224 38.7555 29.3982C37.9542 28.474 36.847 27.8693 35.6364 27.6945ZM18.9091 27.6364H1.45455V5.81818H18.9091V27.6364ZM3.63636 1.45455H16.7273C17.3059 1.45455 17.8609 1.68442 18.2701 2.09359C18.6792 2.50276 18.9091 3.05771 18.9091 3.63636V4.36364H1.45455V3.63636C1.45455 3.05771 1.68442 2.50276 2.09359 2.09359C2.50276 1.68442 3.05771 1.45455 3.63636 1.45455ZM1.45455 29.8182V29.0909H18.9091V29.8182C18.9091 30.3968 18.6792 30.9518 18.2701 31.361C17.8609 31.7701 17.3059 32 16.7273 32H3.63636C3.05771 32 2.50276 31.7701 2.09359 31.361C1.68442 30.9518 1.45455 30.3968 1.45455 29.8182ZM34.9091 29.0909C35.8731 29.0921 36.7974 29.4756 37.4791 30.1573C38.1608 30.839 38.5443 31.7632 38.5455 32.7273V33.4545H31.2727V32.7273C31.2739 31.7632 31.6574 30.839 32.3391 30.1573C33.0208 29.4756 33.945 29.0921 34.9091 29.0909ZM34.9091 42.1818C33.945 42.1806 33.0208 41.7971 32.3391 41.1154C31.6574 40.4337 31.2739 39.5095 31.2727 38.5455V34.9091H38.5455V38.5455C38.5443 39.5095 38.1608 40.4337 37.4791 41.1154C36.7974 41.7971 35.8731 42.1806 34.9091 42.1818ZM34.1818 30.5455H35.6364V32H34.1818V30.5455ZM5.09091 15.2727H6.54545V16.7273H5.09091V15.2727ZM8 15.2727H12.3636V16.7273H8V15.2727ZM6.54545 18.1818H9.45455V19.6364H6.54545V18.1818ZM10.9091 18.1818H13.8182V19.6364H10.9091V18.1818ZM8 21.0909H16.7273V22.5455H8V21.0909ZM3.12182 11.4236L4.57636 12.8782L5.60545 11.8491L4.66455 10.9091L5.60545 9.96909L4.57636 8.94L3.12182 10.3945C3.0542 10.4621 3.00056 10.5423 2.96396 10.6306C2.92736 10.7189 2.90852 10.8135 2.90852 10.9091C2.90852 11.0047 2.92736 11.0993 2.96396 11.1876C3.00056 11.2759 3.0542 11.3561 3.12182 11.4236ZM9.24182 12.8782L10.6964 11.4236C10.764 11.3561 10.8176 11.2759 10.8542 11.1876C10.8908 11.0993 10.9097 11.0047 10.9097 10.9091C10.9097 10.8135 10.8908 10.7189 10.8542 10.6306C10.8176 10.5423 10.764 10.4621 10.6964 10.3945L9.24182 8.94L8.21273 9.96909L9.15364 10.9091L8.21273 11.8491L9.24182 12.8782Z" fill="url(#paint0_linear_16_15)"/>
<defs>
<linearGradient id="paint0_linear_16_15" x1="41.2903" y1="0" x2="-3.57564" y2="41.1352" gradientUnits="userSpaceOnUse">
<stop stop-color="#F38611"/>
<stop offset="1" stop-color="#8B5A91"/>
</linearGradient>
</defs>
</svg>
