<svg width="47" height="44" viewBox="0 0 47 44" fill="none" xmlns="http://www.w3.org/2000/svg">
<path d="M3.10273 37.2364H4.65455V35.6845H3.10273C2.6914 35.6845 2.29692 35.5211 2.00607 35.2303C1.71522 34.9394 1.55182 34.545 1.55182 34.1336V3.10273C1.55182 2.6914 1.71522 2.29692 2.00607 2.00607C2.29692 1.71522 2.6914 1.55182 3.10273 1.55182H37.2364C37.4401 1.5517 37.6419 1.59173 37.8302 1.66961C38.0184 1.7475 38.1895 1.86172 38.3336 2.00575C38.4777 2.14977 38.592 2.32079 38.67 2.50901C38.748 2.69723 38.7882 2.89898 38.7882 3.10273V4.65455H40.3391V3.10273C40.3391 2.27983 40.0122 1.49064 39.4303 0.908768C38.8484 0.326894 38.0593 0 37.2364 0L3.10273 0C2.27983 0 1.49064 0.326894 0.908768 0.908768C0.326894 1.49064 0 2.27983 0 3.10273L0 34.1336C0 34.9565 0.326894 35.7457 0.908768 36.3276C1.49064 36.9095 2.27983 37.2364 3.10273 37.2364ZM3.10273 3.10273H4.65455V4.65455H3.10273V3.10273ZM6.20636 3.10273H7.75727V4.65455H6.20636V3.10273ZM9.30909 3.10273H10.8609V4.65455H9.30909V3.10273ZM6.20636 40.3391C6.20636 41.1621 6.53323 41.9514 7.11508 42.5334C7.69692 43.1154 8.48611 43.4425 9.30909 43.4427H43.4427C44.2657 43.4425 45.0549 43.1154 45.6367 42.5334C46.2186 41.9514 46.5455 41.1621 46.5455 40.3391V9.30909C46.5455 8.4862 46.2186 7.69701 45.6367 7.11513C45.0548 6.53326 44.2656 6.20636 43.4427 6.20636H9.30909C8.4862 6.20636 7.69701 6.53326 7.11513 7.11513C6.53326 7.69701 6.20636 8.4862 6.20636 9.30909V40.3391ZM7.75727 9.30909C7.75727 8.89752 7.92077 8.50281 8.21179 8.21179C8.50281 7.92077 8.89752 7.75727 9.30909 7.75727H43.4427C43.6465 7.75727 43.8482 7.79742 44.0364 7.87541C44.2247 7.95341 44.3957 8.06773 44.5397 8.21184C44.6837 8.35596 44.798 8.52703 44.8758 8.7153C44.9537 8.90357 44.9938 9.10535 44.9936 9.30909V40.3391C44.9938 40.5428 44.9537 40.7446 44.8758 40.9329C44.798 41.1211 44.6837 41.2922 44.5397 41.4363C44.3957 41.5804 44.2247 41.6948 44.0364 41.7728C43.8482 41.8508 43.6465 41.8909 43.4427 41.8909H9.30909C8.89752 41.8909 8.50281 41.7274 8.21179 41.4364C7.92077 41.1454 7.75727 40.7507 7.75727 40.3391V9.30909ZM9.30909 9.30909H10.8609V10.8609H9.30909V9.30909ZM12.4118 9.30909H13.9636V10.8609H12.4118V9.30909ZM15.5155 9.30909H17.0664V10.8609H15.5155V9.30909ZM9.30909 12.4118H43.4427V13.9636H9.30909V12.4118ZM9.30909 16.2909H15.5155V17.8427H9.30909V16.2909ZM9.30909 19.3936H13.9636V20.9455H9.30909V19.3936ZM26.3755 22.4973C25.3015 22.4975 24.2518 22.8161 23.359 23.4128C22.4661 24.0096 21.7703 24.8577 21.3594 25.8499C20.9486 26.8421 20.8412 27.9339 21.0508 28.9872C21.2604 30.0404 21.7777 31.0079 22.5371 31.7672C23.2965 32.5265 24.2641 33.0436 25.3174 33.253C26.3707 33.4624 27.4624 33.3549 28.4545 32.9438C29.4467 32.5328 30.2947 31.8369 30.8913 30.9439C31.4879 30.051 31.8064 29.0012 31.8064 27.9273C31.8064 27.2141 31.6659 26.5079 31.3929 25.8491C31.12 25.1902 30.72 24.5916 30.2156 24.0874C29.7113 23.5831 29.1126 23.1832 28.4537 22.9103C27.7948 22.6375 27.0886 22.4972 26.3755 22.4973ZM26.3755 31.8064C25.6082 31.8064 24.8583 31.5789 24.2203 31.1526C23.5824 30.7264 23.0852 30.1205 22.7916 29.4117C22.498 28.7029 22.4212 27.923 22.5709 27.1705C22.7206 26.418 23.09 25.7268 23.6325 25.1843C24.175 24.6418 24.8662 24.2724 25.6187 24.1227C26.3712 23.973 27.1511 24.0499 27.8599 24.3435C28.5687 24.6371 29.1746 25.1342 29.6008 25.7722C30.027 26.4101 30.2545 27.1601 30.2545 27.9273C30.2545 28.4367 30.1542 28.9411 29.9593 29.4117C29.7643 29.8824 29.4786 30.31 29.1184 30.6702C28.7582 31.0304 28.3306 31.3161 27.8599 31.5111C27.3893 31.706 26.8849 31.8064 26.3755 31.8064ZM38.7882 25.6C38.7882 25.4981 38.7681 25.3972 38.7291 25.303C38.69 25.2089 38.6328 25.1234 38.5607 25.0513C38.4886 24.9793 38.403 24.9222 38.3089 24.8833C38.2147 24.8444 38.1137 24.8244 38.0118 24.8245H35.9618C35.7977 24.3148 35.5925 23.8192 35.3482 23.3427L36.7982 21.8936C36.9436 21.7481 37.0252 21.5507 37.0252 21.345C37.0252 21.1393 36.9436 20.9419 36.7982 20.7964L33.5064 17.5045C33.3606 17.3596 33.1633 17.2782 32.9577 17.2782C32.7521 17.2782 32.5549 17.3596 32.4091 17.5045L30.9609 18.9536C30.4839 18.7107 29.9884 18.5058 29.4791 18.3409V16.2909C29.4791 16.189 29.459 16.0881 29.42 15.9939C29.381 15.8998 29.3237 15.8143 29.2516 15.7423C29.1795 15.6702 29.094 15.6131 28.9998 15.5742C28.9056 15.5353 28.8046 15.5153 28.7027 15.5155H24.0482C23.8425 15.5155 23.6453 15.5972 23.4999 15.7426C23.3544 15.888 23.2727 16.0852 23.2727 16.2909V18.3409C22.7634 18.5058 22.268 18.7107 21.7909 18.9536L20.3418 17.5045C20.196 17.3596 19.9988 17.2782 19.7932 17.2782C19.5876 17.2782 19.3904 17.3596 19.2445 17.5045L15.9536 20.7964C15.8082 20.9419 15.7266 21.1393 15.7266 21.345C15.7266 21.5507 15.8082 21.7481 15.9536 21.8936L17.4027 23.3427C17.3382 23.47 17.2755 23.5973 17.2164 23.7255C17.0526 24.0831 16.9103 24.4501 16.79 24.8245H14.7391C14.5334 24.8245 14.3362 24.9062 14.1908 25.0517C14.0453 25.1971 13.9636 25.3943 13.9636 25.6V30.2545C13.9636 30.4602 14.0453 30.6574 14.1908 30.8029C14.3362 30.9483 14.5334 31.03 14.7391 31.03H16.79C16.9537 31.5399 17.159 32.0355 17.4036 32.5118L15.9536 33.9609C15.8082 34.1065 15.7266 34.3038 15.7266 34.5095C15.7266 34.7153 15.8082 34.9126 15.9536 35.0582L19.2445 38.35C19.3904 38.4949 19.5876 38.5763 19.7932 38.5763C19.9988 38.5763 20.196 38.4949 20.3418 38.35L21.7909 36.9009C22.268 37.1438 22.7634 37.3487 23.2727 37.5136V39.5636C23.2727 39.7693 23.3544 39.9665 23.4999 40.112C23.6453 40.2574 23.8425 40.3391 24.0482 40.3391H28.7027C28.8046 40.3392 28.9056 40.3192 28.9998 40.2803C29.094 40.2414 29.1795 40.1843 29.2516 40.1123C29.3237 40.0403 29.381 39.9547 29.42 39.8606C29.459 39.7665 29.4791 39.6655 29.4791 39.5636V37.5136C29.9884 37.3487 30.4839 37.1438 30.9609 36.9009L32.4091 38.35C32.5549 38.4949 32.7521 38.5763 32.9577 38.5763C33.1633 38.5763 33.3606 38.4949 33.5064 38.35L36.7982 35.0582C36.9436 34.9126 37.0252 34.7153 37.0252 34.5095C37.0252 34.3038 36.9436 34.1065 36.7982 33.9609L35.3482 32.5118C35.5925 32.0353 35.7977 31.5397 35.9618 31.03H38.0118C38.1137 31.0301 38.2147 31.0101 38.3089 30.9712C38.403 30.9323 38.4886 30.8752 38.5607 30.8032C38.6328 30.7312 38.69 30.6456 38.7291 30.5515C38.7681 30.4574 38.7882 30.3565 38.7882 30.2545V25.6ZM37.2364 29.4791H35.3791C35.2071 29.4791 35.0401 29.5362 34.9041 29.6416C34.7682 29.7469 34.6711 29.8944 34.6282 30.0609C34.4293 30.8311 34.1233 31.5695 33.7191 32.2545C33.6316 32.4026 33.5958 32.5756 33.6173 32.7463C33.6389 32.917 33.7166 33.0756 33.8382 33.1973L35.15 34.5091L32.9564 36.7045L31.6455 35.3918C31.5238 35.2702 31.3651 35.1925 31.1945 35.171C31.0238 35.1494 30.8508 35.1852 30.7027 35.2727C30.0178 35.6773 29.2794 35.9833 28.5091 36.1818C28.3426 36.2248 28.1951 36.3218 28.0897 36.4578C27.9844 36.5937 27.9273 36.7608 27.9273 36.9327V38.79H24.8245V36.9309C24.8244 36.759 24.7672 36.592 24.6619 36.4561C24.5566 36.3202 24.4092 36.2231 24.2427 36.18C23.4724 35.9817 22.7339 35.6756 22.0491 35.2709C21.9009 35.1835 21.7279 35.1479 21.5572 35.1696C21.3865 35.1913 21.2279 35.2692 21.1064 35.3909L19.7936 36.7036L17.6 34.5091L18.9091 33.1973C19.0304 33.0754 19.1079 32.9168 19.1295 32.7462C19.151 32.5756 19.1154 32.4027 19.0282 32.2545C18.624 31.5695 18.3179 30.8311 18.1191 30.0609C18.076 29.8945 17.9789 29.747 17.843 29.6418C17.7071 29.5365 17.5401 29.4792 17.3682 29.4791H15.5155V26.3755H17.3727C17.5446 26.3753 17.7117 26.3181 17.8476 26.2128C17.9835 26.1075 18.0806 25.9601 18.1236 25.7936C18.2485 25.3055 18.417 24.8297 18.6273 24.3718C18.7485 24.1064 18.883 23.8479 19.0309 23.5964C19.1176 23.448 19.1526 23.2751 19.1306 23.1047C19.1085 22.9343 19.0306 22.776 18.9091 22.6545L17.6 21.3418L19.7936 19.1473L21.1064 20.46C21.228 20.5816 21.3867 20.6593 21.5574 20.6809C21.728 20.7024 21.901 20.6666 22.0491 20.5791C22.7339 20.1744 23.4724 19.8683 24.2427 19.67C24.4091 19.6268 24.5564 19.5296 24.6617 19.3938C24.767 19.2579 24.8242 19.091 24.8245 18.9191V17.0645H27.9273V18.9218C27.9273 19.0938 27.9844 19.2609 28.0897 19.3968C28.1951 19.5327 28.3426 19.6298 28.5091 19.6727C29.2794 19.8712 30.0178 20.1773 30.7027 20.5818C30.8509 20.6692 31.024 20.7049 31.1946 20.6832C31.3653 20.6614 31.5239 20.5836 31.6455 20.4618L32.9582 19.1491L35.1518 21.3445L33.84 22.6564C33.7184 22.778 33.6407 22.9367 33.6191 23.1073C33.5976 23.278 33.6334 23.451 33.7209 23.5991C34.1251 24.2841 34.4311 25.0226 34.63 25.7927C34.6729 25.9592 34.77 26.1068 34.9059 26.2121C35.0419 26.3174 35.209 26.3745 35.3809 26.3745H37.2364V29.4791ZM38.7882 38.7882H43.4427V40.3391H38.7882V38.7882Z" fill="url(#paint0_linear_16_3)"/>
<defs>
<linearGradient id="paint0_linear_16_3" x1="0" y1="21.7214" x2="46.5455" y2="21.7214" gradientUnits="userSpaceOnUse">
<stop stop-color="#7A4281"/>
<stop offset="1" stop-color="#E48023"/>
</linearGradient>
</defs>
</svg>
