<svg width="55" height="56" viewBox="0 0 55 56" fill="none" xmlns="http://www.w3.org/2000/svg">
<g clip-path="url(#clip0_1_137)">
<g clip-path="url(#clip1_1_137)">
<g clip-path="url(#clip2_1_137)">
<mask id="mask0_1_137" style="mask-type:luminance" maskUnits="userSpaceOnUse" x="0" y="0" width="55" height="56">
<path d="M55 0.299805H0V55.2998H55V0.299805Z" fill="white"/>
</mask>
<g mask="url(#mask0_1_137)">
<path d="M27.5 0.299805C25.4546 0.299805 23.4091 0.526141 21.5909 0.978815V27.7998C21.5909 31.0817 24.3182 33.7977 27.6136 33.7977C30.9091 33.7977 33.6363 31.0817 33.6363 27.7998C33.6363 24.6311 31.1364 22.0282 28.0682 21.8019V17.0488C33.75 17.2751 38.4091 22.0282 38.4091 27.7998C38.4091 33.6846 33.6363 38.5508 27.6136 38.5508C21.7046 38.5508 16.8182 33.6846 16.8182 27.7998V2.45001C16.1364 2.78952 15.4545 3.01585 14.7727 3.35536V27.7998C14.7727 34.8162 20.4545 40.5879 27.5 40.5879C34.5455 40.5879 40.2273 34.8162 40.2273 27.7998C40.2273 20.8965 34.7728 15.2381 27.8409 15.0117V10.2586C37.2727 10.485 45 18.2936 45 27.7998C45 37.4191 37.1591 45.341 27.5 45.341C17.8409 45.341 9.99998 37.4191 9.99998 27.7998V6.63725C3.86363 11.7299 0 19.3121 0 27.7998C0 42.9644 12.2728 55.2998 27.5 55.2998C42.7272 55.2998 55 42.9644 55 27.7998C55 12.6352 42.7272 0.299805 27.5 0.299805Z" fill="white"/>
</g>
</g>
</g>
</g>
<defs>
<clipPath id="clip0_1_137">
<rect width="55" height="55" fill="white" transform="translate(0 0.299805)"/>
</clipPath>
<clipPath id="clip1_1_137">
<rect width="55" height="55" fill="white" transform="translate(0 0.299805)"/>
</clipPath>
<clipPath id="clip2_1_137">
<rect width="55" height="55" fill="white" transform="translate(0 0.299805)"/>
</clipPath>
</defs>
</svg>
