<svg width="55" height="56" viewBox="0 0 55 56" fill="none" xmlns="http://www.w3.org/2000/svg">
<g clip-path="url(#clip0_1_168)">
<g clip-path="url(#clip1_1_168)">
<mask id="mask0_1_168" style="mask-type:luminance" maskUnits="userSpaceOnUse" x="0" y="0" width="55" height="56">
<path d="M55 0.299805H0V55.2998H55V0.299805Z" fill="white"/>
</mask>
<g mask="url(#mask0_1_168)">
<path fill-rule="evenodd" clip-rule="evenodd" d="M28.644 32.7751C28.644 36.2952 31.4563 39.1477 34.9269 39.1477C38.3975 39.1477 41.2396 36.2951 41.2396 32.7751C41.2396 29.2246 38.3973 26.3721 34.9269 26.3721C31.4564 26.3721 28.644 29.2549 28.644 32.7751ZM35.6175 28.6161C35.2585 28.252 34.6301 28.252 34.2711 28.6161L31.8776 31.0438C31.4886 31.4384 31.4886 32.0452 31.8776 32.4093C32.2667 32.7734 32.865 32.8039 33.224 32.4093L33.9719 31.6507V36.0812C33.9719 36.6274 34.3908 37.0525 34.9294 37.0525C35.4678 37.0525 35.8869 36.6276 35.8869 36.0812V31.6507L36.6349 32.4093C36.8143 32.5914 37.0536 32.6823 37.3228 32.6823C37.5623 32.6823 37.8016 32.5914 38.0109 32.4093C38.4 32.0148 38.4 31.4079 38.0109 31.0438L35.6175 28.6161Z" fill="white"/>
<path fill-rule="evenodd" clip-rule="evenodd" d="M27.5 55.2998C42.6879 55.2998 55 42.9877 55 27.7998C55 12.6119 42.6879 0.299805 27.5 0.299805C12.3121 0.299805 0 12.6119 0 27.7998C0 42.9877 12.3121 55.2998 27.5 55.2998ZM25.024 21.0902C30.7079 21.0902 35.3159 19.5143 35.3159 17.57C35.3159 15.6259 30.7079 14.0498 25.024 14.0498C19.3399 14.0498 14.7321 15.6259 14.7321 17.57C14.7321 19.5143 19.3401 21.0902 25.024 21.0902ZM35.3159 21.122V24.4602C39.6539 24.6422 43.1544 28.2837 43.1844 32.7143C43.1844 37.3269 39.4745 41.0594 34.9569 41.0594C31.9052 41.0594 29.2126 39.36 27.8064 36.8413C26.909 36.9324 25.9816 36.9931 25.0241 36.9931C19.3396 36.9931 14.7323 35.415 14.7323 33.473V29.0728C17.1856 30.6507 21.3143 31.288 25.0241 31.288C25.6212 31.288 26.1911 31.2605 26.7856 31.2318L26.879 31.2273C27.0285 30.408 27.2979 29.6494 27.6568 28.921C26.8192 28.9815 25.9515 29.0423 25.024 29.0423C19.3395 29.0423 14.7321 27.4643 14.7321 25.5221V21.122C17.1854 22.7304 21.2842 23.3374 25.024 23.3374C28.7339 23.3374 32.8625 22.7304 35.3159 21.122Z" fill="white"/>
</g>
</g>
</g>
<defs>
<clipPath id="clip0_1_168">
<rect width="55" height="55" fill="white" transform="translate(0 0.299805)"/>
</clipPath>
<clipPath id="clip1_1_168">
<rect width="55" height="55" fill="white" transform="translate(0 0.299805)"/>
</clipPath>
</defs>
</svg>
