<svg width="55" height="56" viewBox="0 0 55 56" fill="none" xmlns="http://www.w3.org/2000/svg">
<g clip-path="url(#clip0_1_183)">
<g clip-path="url(#clip1_1_183)">
<mask id="mask0_1_183" style="mask-type:luminance" maskUnits="userSpaceOnUse" x="0" y="0" width="55" height="56">
<path d="M55 0.299805H0V55.2998H55V0.299805Z" fill="white"/>
</mask>
<g mask="url(#mask0_1_183)">
<path d="M26.6328 27.4074C26.6328 28.4699 26.9665 29.3712 27.6341 30.1112C28.2902 30.8395 29.0997 31.2036 30.0627 31.2036C31.1483 31.2036 31.9924 30.8515 32.5909 30.1471C33.1894 29.4189 33.4887 28.5057 33.4887 27.4074C33.4887 26.2733 33.1625 25.3601 32.5065 24.6677C32.1842 24.3278 31.8274 24.0699 31.4361 23.894C31.0141 23.7055 30.5576 23.6113 30.0627 23.6113C29.0652 23.6113 28.2441 23.9634 27.5996 24.6677C27.4039 24.8815 27.239 25.1146 27.1047 25.367C26.9665 25.6209 26.8592 25.8943 26.7824 26.1873C26.7364 26.3629 26.7019 26.5455 26.675 26.735C26.6481 26.9501 26.6328 27.1742 26.6328 27.4074Z" fill="white"/>
<path fill-rule="evenodd" clip-rule="evenodd" d="M27.5 55.2998C42.6886 55.2998 55 42.9877 55 27.7998C55 12.6119 42.6886 0.299805 27.5 0.299805C12.3114 0.299805 0 12.6119 0 27.7998C0 42.9877 12.3114 55.2998 27.5 55.2998ZM9.35721 28.5708C10.5196 29.1558 11.1028 29.7109 11.1028 30.2362C11.1028 30.5346 11.003 30.7733 10.7997 30.9525C10.6079 31.1195 10.3355 31.2031 9.9826 31.2031C9.51835 31.2031 9.05413 31.0897 8.58991 30.8629C8.4518 30.7908 8.32136 30.7106 8.19475 30.6223L8.07199 30.5338L7.88399 30.3751C7.72286 30.2265 7.57325 30.0608 7.43897 29.878L5.89286 31.8298C6.16524 32.4626 6.69085 32.964 7.46966 33.334C8.24079 33.7041 9.05413 33.8891 9.91738 33.8891C11.0913 33.8891 12.0619 33.5429 12.8177 32.8506C13.0172 32.6742 13.1899 32.4855 13.3356 32.2843C13.4507 32.1295 13.5505 31.9674 13.6349 31.798C13.8728 31.323 13.9879 30.7904 13.9879 30.2004C13.9879 29.9565 13.9687 29.7245 13.9342 29.5045C13.8766 29.1431 13.7692 28.814 13.6157 28.5171C13.5045 28.2889 13.3779 28.0855 13.2398 27.9067C13.0786 27.7017 12.8983 27.5292 12.6988 27.3891C12.3382 27.1145 11.9431 26.8578 11.5134 26.619C11.0798 26.3803 10.6808 26.1833 10.3048 26.0282C9.9442 25.8611 9.63728 25.6521 9.3879 25.4014C9.15388 25.1507 9.03495 24.8643 9.03495 24.5419C9.03495 24.4778 9.03878 24.4167 9.05029 24.3586L9.08098 24.2285C9.11167 24.139 9.15772 24.0577 9.21526 23.985C9.24979 23.9408 9.29199 23.8996 9.33803 23.8615C9.55287 23.6944 9.84824 23.6109 10.2204 23.6109C10.6079 23.6109 10.9187 23.6704 11.1566 23.7898C11.4021 23.9092 11.6936 24.13 12.0198 24.4524L13.4815 22.3035C12.6642 21.3843 11.5018 20.9248 9.9826 20.9248C8.82778 20.9248 7.90319 21.2769 7.2011 21.9813C6.49903 22.6856 6.14606 23.5392 6.14606 24.5419C6.13455 24.9956 6.19978 25.4194 6.33406 25.8132C6.39544 25.9828 6.46449 26.1404 6.53739 26.2857C6.58342 26.3764 6.62946 26.4622 6.67934 26.5433C6.73305 26.6342 6.78676 26.7192 6.84431 26.7981C7.04764 27.0608 7.30085 27.3174 7.60777 27.568C7.83029 27.7363 8.03745 27.8807 8.22545 28.0015L8.45564 28.1411C8.71652 28.2724 9.01577 28.4157 9.35721 28.5708ZM15.511 33.6742H22.7235V30.9883H18.2272V28.7141H22.0483V26.0282H18.2272V23.8257H22.5547V21.1397H15.511V33.6742ZM23.7479 27.4069C23.7479 25.5567 24.331 24.0167 25.4973 22.787C26.6713 21.5456 28.1944 20.9248 30.0628 20.9248C31.9158 20.9248 33.4274 21.5158 34.5937 22.6975C35.783 23.8794 36.3777 25.4492 36.3777 27.4069C36.3777 29.2931 35.7753 30.845 34.5783 32.0626C33.389 33.2803 31.8851 33.8891 30.0628 33.8891C29.0384 33.8891 28.1177 33.7069 27.2967 33.3424C26.959 33.193 26.6406 33.0131 26.3375 32.8024C26.0459 32.6017 25.7698 32.3729 25.5127 32.1163C24.3348 30.9346 23.7479 29.3648 23.7479 27.4069ZM46.0878 33.6742H48.2631V21.1397H45.7157V28.6962L40.0799 21.1397H37.9085V33.6742H40.452V26.1534L46.0878 33.6742Z" fill="white"/>
</g>
</g>
</g>
<defs>
<clipPath id="clip0_1_183">
<rect width="55" height="55" fill="white" transform="translate(0 0.299805)"/>
</clipPath>
<clipPath id="clip1_1_183">
<rect width="55" height="55" fill="white" transform="translate(0 0.299805)"/>
</clipPath>
</defs>
</svg>
