<svg width="50" height="50" viewBox="0 0 50 50" fill="none" xmlns="http://www.w3.org/2000/svg">
<path d="M22.5455 27.6364C21.8263 27.6364 21.1232 27.8496 20.5252 28.2492C19.9272 28.6488 19.4611 29.2167 19.1859 29.8812C18.9107 30.5456 18.8387 31.2768 18.979 31.9821C19.1193 32.6875 19.4656 33.3355 19.9742 33.844C20.4827 34.3526 21.1306 34.6989 21.836 34.8392C22.5414 34.9795 23.2726 34.9075 23.937 34.6323C24.6015 34.3571 25.1694 33.891 25.569 33.293C25.9685 32.695 26.1818 31.9919 26.1818 31.2727C26.1806 30.3087 25.7971 29.3844 25.1154 28.7028C24.4337 28.0211 23.5095 27.6376 22.5455 27.6364ZM22.5455 33.4545C22.1139 33.4545 21.6921 33.3266 21.3333 33.0868C20.9745 32.8471 20.6949 32.5063 20.5297 32.1077C20.3646 31.709 20.3214 31.2703 20.4056 30.8471C20.4897 30.4238 20.6975 30.0351 21.0027 29.7299C21.3078 29.4248 21.6966 29.217 22.1198 29.1328C22.543 29.0486 22.9817 29.0919 23.3804 29.257C23.7791 29.4221 24.1198 29.7018 24.3596 30.0606C24.5993 30.4194 24.7273 30.8412 24.7273 31.2727C24.7273 31.8514 24.4974 32.4063 24.0882 32.8155C23.6791 33.2247 23.1241 33.4545 22.5455 33.4545ZM21.8182 2.90909H27.6364V4.36364H21.8182V2.90909ZM21.8182 5.81818H27.6364V7.27273H21.8182V5.81818ZM17.4545 8.72727H27.6364V10.1818H17.4545V8.72727ZM17.4545 11.6364H27.6364V13.0909H17.4545V11.6364ZM17.4545 14.5455H27.6364V16H17.4545V14.5455ZM45.0909 23.2727V17.4545H34.9091V23.2727H39.2727V30.5455H30.5455V29.2936L28.76 28.6982L29.6018 27.0155L26.8027 24.2164L25.1191 25.0591L24.5245 23.2727H23.2727V18.9091H30.5455V10.1818H39.2727V14.2445L37.6055 12.5764L36.5764 13.6055L40 17.0282L43.4236 13.6055L42.3945 12.5764L40.7273 14.2445V8.72727H30.5455V0H19.3355L14.5455 4.79V8.72727H4.36364V14.2445L2.69636 12.5764L1.66727 13.6055L5.09091 17.0282L8.51455 13.6055L7.48545 12.5764L5.81818 14.2445V10.1818H14.5455V18.9091H21.8182V23.2727H20.5664L19.9718 25.0591L18.2882 24.2164L15.4891 27.0155L16.3309 28.6982L14.5455 29.2936V30.5455H5.81818V23.2727H10.1818V17.4545H0V23.2727H4.36364V35.0127C3.67807 35.1897 3.08059 35.6107 2.6832 36.1967C2.28581 36.7828 2.11579 37.4936 2.205 38.196C2.29422 38.8984 2.63655 39.5442 3.16783 40.0122C3.69911 40.4803 4.38286 40.7385 5.09091 40.7385C5.79896 40.7385 6.48271 40.4803 7.01399 40.0122C7.54526 39.5442 7.8876 38.8984 7.97681 38.196C8.06603 37.4936 7.89601 36.7828 7.49862 36.1967C7.10123 35.6107 6.50375 35.1897 5.81818 35.0127V32H10.1818V40.8609C9.69657 41.0325 9.2876 41.37 9.02718 41.814C8.76676 42.2579 8.67166 42.7796 8.75869 43.2869C8.84573 43.7942 9.10929 44.2543 9.50279 44.5861C9.8963 44.9178 10.3944 45.0998 10.9091 45.0998C11.4238 45.0998 11.9219 44.9178 12.3154 44.5861C12.7089 44.2543 12.9725 43.7942 13.0595 43.2869C13.1465 42.7796 13.0514 42.2579 12.791 41.814C12.5306 41.37 12.1216 41.0325 11.6364 40.8609V32H14.5455V33.2518L16.3309 33.8473L15.4891 35.53L18.2882 38.3291L19.9718 37.4864L20.5664 39.2727H24.5236L25.1182 37.4864L26.8018 38.3291L29.6009 35.53L28.7591 33.8473L30.5455 33.2518V32H33.4545V40.8609C32.9693 41.0325 32.5603 41.37 32.2999 41.814C32.0395 42.2579 31.9444 42.7796 32.0314 43.2869C32.1185 43.7942 32.382 44.2543 32.7755 44.5861C33.169 44.9178 33.6671 45.0998 34.1818 45.0998C34.6965 45.0998 35.1946 44.9178 35.5881 44.5861C35.9816 44.2543 36.2452 43.7942 36.3322 43.2869C36.4193 42.7796 36.3242 42.2579 36.0637 41.814C35.8033 41.37 35.3943 41.0325 34.9091 40.8609V32H39.2727V35.0127C38.5872 35.1897 37.9897 35.6107 37.5923 36.1967C37.1949 36.7828 37.0249 37.4936 37.1141 38.196C37.2033 38.8984 37.5456 39.5442 38.0769 40.0122C38.6082 40.4803 39.2919 40.7385 40 40.7385C40.7081 40.7385 41.3918 40.4803 41.9231 40.0122C42.4544 39.5442 42.7967 38.8984 42.8859 38.196C42.9751 37.4936 42.8051 36.7828 42.4077 36.1967C42.0103 35.6107 41.4128 35.1897 40.7273 35.0127V23.2727H45.0909ZM18.9091 2.48273V4.36364H17.0282L18.9091 2.48273ZM16 5.81818H20.3636V1.45455H29.0909V17.4545H16V5.81818ZM1.45455 18.9091H8.72727V21.8182H1.45455V18.9091ZM6.54545 37.8182C6.54545 38.1059 6.46015 38.3871 6.30032 38.6263C6.14049 38.8655 5.91332 39.0519 5.64754 39.162C5.38176 39.2721 5.0893 39.3009 4.80714 39.2448C4.52499 39.1887 4.26581 39.0501 4.06239 38.8467C3.85897 38.6433 3.72044 38.3841 3.66431 38.102C3.60819 37.8198 3.63699 37.5273 3.74708 37.2616C3.85718 36.9958 4.04361 36.7686 4.28281 36.6088C4.52201 36.4489 4.80323 36.3636 5.09091 36.3636C5.47668 36.3636 5.84665 36.5169 6.11943 36.7897C6.39221 37.0624 6.54545 37.4324 6.54545 37.8182ZM10.9091 43.6364C10.7653 43.6364 10.6246 43.5937 10.505 43.5138C10.3854 43.4339 10.2922 43.3203 10.2372 43.1874C10.1821 43.0545 10.1677 42.9083 10.1958 42.7672C10.2239 42.6261 10.2931 42.4965 10.3948 42.3948C10.4965 42.2931 10.6261 42.2239 10.7672 42.1958C10.9083 42.1677 11.0545 42.1821 11.1874 42.2372C11.3203 42.2922 11.4339 42.3854 11.5138 42.505C11.5937 42.6246 11.6364 42.7653 11.6364 42.9091C11.6364 43.102 11.5597 43.287 11.4234 43.4234C11.287 43.5597 11.102 43.6364 10.9091 43.6364ZM29.0909 32.2027L27.4227 32.7591L27.3 33.08C27.2627 33.1709 27.2273 33.2618 27.1864 33.3527L27.0455 33.6682L27.8318 35.24L26.5164 36.5555L24.9436 35.77L24.6291 35.9109C24.5382 35.9509 24.4473 35.9873 24.3564 36.0218L24.0327 36.1445L23.4755 37.8182H21.6145L21.0573 36.1473L20.7336 36.0245C20.6427 35.99 20.5518 35.9536 20.4609 35.9136L20.1464 35.7727L18.5736 36.5582L17.2582 35.2427L18.0445 33.6709L17.9036 33.3555C17.8627 33.2645 17.8273 33.1736 17.7909 33.0827L17.6673 32.7618L16 32.2027V30.3418L17.6682 29.7855L17.7909 29.4645C17.8282 29.3736 17.8636 29.2827 17.9045 29.1918L18.0455 28.8773L17.2591 27.3045L18.5745 25.9891L20.1473 26.7755L20.4618 26.6345C20.5527 26.5936 20.6436 26.5582 20.7345 26.5227L21.0582 26.4009L21.6155 24.7273H23.4764L24.0336 26.3982L24.3573 26.5209C24.4482 26.5555 24.5391 26.5918 24.63 26.6318L24.9445 26.7727L26.5173 25.9873L27.8327 27.3027L27.0464 28.8745L27.1873 29.19C27.2282 29.2809 27.2636 29.3718 27.3 29.4627L27.4236 29.7836L29.0909 30.3427V32.2027ZM34.1818 43.6364C34.038 43.6364 33.8974 43.5937 33.7778 43.5138C33.6582 43.4339 33.565 43.3203 33.5099 43.1874C33.4549 43.0545 33.4405 42.9083 33.4685 42.7672C33.4966 42.6261 33.5658 42.4965 33.6676 42.3948C33.7693 42.2931 33.8989 42.2239 34.0399 42.1958C34.181 42.1677 34.3272 42.1821 34.4601 42.2372C34.593 42.2922 34.7066 42.3854 34.7865 42.505C34.8664 42.6246 34.9091 42.7653 34.9091 42.9091C34.9091 43.102 34.8325 43.287 34.6961 43.4234C34.5597 43.5597 34.3747 43.6364 34.1818 43.6364ZM41.4545 37.8182C41.4545 38.1059 41.3692 38.3871 41.2094 38.6263C41.0496 38.8655 40.8224 39.0519 40.5566 39.162C40.2908 39.2721 39.9984 39.3009 39.7162 39.2448C39.4341 39.1887 39.1749 39.0501 38.9715 38.8467C38.7681 38.6433 38.6295 38.3841 38.5734 38.102C38.5173 37.8198 38.5461 37.5273 38.6562 37.2616C38.7663 36.9958 38.9527 36.7686 39.1919 36.6088C39.4311 36.4489 39.7123 36.3636 40 36.3636C40.3858 36.3636 40.7557 36.5169 41.0285 36.7897C41.3013 37.0624 41.4545 37.4324 41.4545 37.8182ZM36.3636 18.9091H43.6364V21.8182H36.3636V18.9091Z" fill="url(#paint0_linear_1_63)"/>
<defs>
<linearGradient id="paint0_linear_1_63" x1="46.5455" y1="0" x2="1.7901e-06" y2="46.5455" gradientUnits="userSpaceOnUse">
<stop stop-color="#F38611"/>
<stop offset="1" stop-color="#8B5A91"/>
</linearGradient>
</defs>
</svg>
