<svg width="40" height="40" viewBox="0 0 40 40" fill="none" xmlns="http://www.w3.org/2000/svg">
<g clip-path="url(#clip0_22_716)">
<g clip-path="url(#clip1_22_716)">
<path fill-rule="evenodd" clip-rule="evenodd" d="M20 40C31.0457 40 40 31.0457 40 20C40 8.9543 31.0457 0 20 0C8.9543 0 0 8.9543 0 20C0 31.0457 8.9543 40 20 40ZM27.5938 12.1406C28.4375 11.8125 29.1875 12.3281 28.9062 13.6406L25.7656 28.5938C25.5312 29.625 24.875 29.9062 23.9844 29.3906L19.1562 25.8281L16.8594 28.0781C16.5781 28.3594 16.3906 28.5469 15.875 28.5469L16.2031 23.625L25.1562 15.5625C25.5781 15.2344 25.0625 15 24.5469 15.375L13.4844 22.3125L8.75 20.8594C7.71875 20.5312 7.67188 19.8281 8.9375 19.3125L27.5938 12.1406Z" fill="url(#paint0_linear_22_716)"/>
</g>
</g>
<defs>
<linearGradient id="paint0_linear_22_716" x1="58.5" y1="20" x2="-20" y2="20" gradientUnits="userSpaceOnUse">
<stop stop-color="#F38611"/>
<stop offset="1" stop-color="#993492"/>
</linearGradient>
<clipPath id="clip0_22_716">
<rect width="40" height="40" fill="white"/>
</clipPath>
<clipPath id="clip1_22_716">
<rect width="40" height="40" fill="white"/>
</clipPath>
</defs>
</svg>
