<svg width="40" height="40" viewBox="0 0 40 40" fill="none" xmlns="http://www.w3.org/2000/svg">
<g clip-path="url(#clip0_22_710)">
<g clip-path="url(#clip1_22_710)">
<path d="M20 40C31.0457 40 40 31.0457 40 20C40 8.9543 31.0457 0 20 0C8.9543 0 0 8.9543 0 20C0 31.0457 8.9543 40 20 40Z" fill="url(#paint0_linear_22_710)"/>
<path d="M20.001 10.2295C25.524 10.2295 30.001 14.7065 30.001 20.2295C30.001 25.7525 25.524 30.2295 20.001 30.2295C18.2338 30.2323 16.4976 29.7647 14.971 28.8745L10.005 30.2295L11.357 25.2615C10.4661 23.7344 9.99804 21.9975 10.001 20.2295C10.001 14.7065 14.478 10.2295 20.001 10.2295ZM16.593 15.5295L16.393 15.5375C16.2635 15.5454 16.137 15.5794 16.021 15.6375C15.9125 15.6989 15.8135 15.7757 15.727 15.8655C15.607 15.9785 15.539 16.0765 15.466 16.1715C15.0961 16.6524 14.897 17.2428 14.9 17.8495C14.902 18.3395 15.03 18.8165 15.23 19.2625C15.639 20.1645 16.312 21.1195 17.2 22.0045C17.414 22.2175 17.624 22.4315 17.85 22.6305C18.9534 23.602 20.2682 24.3025 21.69 24.6765L22.258 24.7635C22.443 24.7735 22.628 24.7595 22.814 24.7505C23.1052 24.7355 23.3896 24.6566 23.647 24.5195C23.7779 24.452 23.9057 24.3786 24.03 24.2995C24.03 24.2995 24.073 24.2715 24.155 24.2095C24.29 24.1095 24.373 24.0385 24.485 23.9215C24.568 23.8355 24.64 23.7345 24.695 23.6195C24.773 23.4565 24.851 23.1455 24.883 22.8865C24.907 22.6885 24.9 22.5805 24.897 22.5135C24.893 22.4065 24.804 22.2955 24.707 22.2485L24.125 21.9875C24.125 21.9875 23.255 21.6085 22.723 21.3665C22.6673 21.3422 22.6077 21.3283 22.547 21.3255C22.4786 21.3185 22.4094 21.3262 22.3442 21.3481C22.279 21.37 22.2193 21.4056 22.169 21.4525C22.164 21.4505 22.097 21.5075 21.374 22.3835C21.3325 22.4393 21.2753 22.4814 21.2098 22.5045C21.1443 22.5277 21.0733 22.5308 21.006 22.5135C20.9408 22.496 20.877 22.474 20.815 22.4475C20.691 22.3955 20.648 22.3755 20.563 22.3395C19.9891 22.089 19.4577 21.7506 18.988 21.3365C18.862 21.2265 18.745 21.1065 18.625 20.9905C18.2316 20.6137 17.8887 20.1875 17.605 19.7225L17.546 19.6275C17.5036 19.5637 17.4694 19.4948 17.444 19.4225C17.406 19.2755 17.505 19.1575 17.505 19.1575C17.505 19.1575 17.748 18.8915 17.861 18.7475C17.971 18.6075 18.064 18.4715 18.124 18.3745C18.242 18.1845 18.279 17.9895 18.217 17.8385C17.937 17.1545 17.647 16.4735 17.349 15.7975C17.29 15.6635 17.115 15.5675 16.956 15.5485C16.902 15.5425 16.848 15.5365 16.794 15.5325C16.6597 15.5258 16.5251 15.5272 16.391 15.5365L16.593 15.5295Z" fill="#F5F5F5"/>
</g>
</g>
<defs>
<linearGradient id="paint0_linear_22_710" x1="40" y1="20" x2="0" y2="20" gradientUnits="userSpaceOnUse">
<stop stop-color="#F38611"/>
<stop offset="1" stop-color="#993492"/>
</linearGradient>
<clipPath id="clip0_22_710">
<rect width="40" height="40" fill="white"/>
</clipPath>
<clipPath id="clip1_22_710">
<rect width="40" height="40" fill="white"/>
</clipPath>
</defs>
</svg>
