<svg width="1844" height="1031" viewBox="0 0 1844 1031" fill="none" xmlns="http://www.w3.org/2000/svg">
<g opacity="0.05">
<g clip-path="url(#clip0_88_18)">
<g clip-path="url(#clip1_88_18)">
<path d="M1834.4 486.981C1806.26 327.991 1719.92 189.407 1589 94.5307C1458.08 -0.345991 1296.65 -35.6774 1139.17 -10.8558C980.03 16.8606 841.461 102.751 746.768 233.262C652.073 363.774 617.08 524.894 642.315 682.209C670.452 841.199 756.795 979.783 887.715 1074.66C903.454 1087.6 920.862 1097.66 935.37 1106.03C1057.23 1176.39 1196.68 1202.89 1334.64 1178.37C1493.78 1150.66 1632.35 1064.76 1727.05 934.254C1824.64 805.417 1860.86 648.864 1834.4 486.981ZM944.425 1003.23C886.835 962.27 838.828 911.406 803.306 852.317C961.394 766.123 1188.94 646.729 1333.4 664.548C1280.65 796.125 1213.83 911.864 1138.39 995.623C1115.88 1021.21 1090.47 1045.12 1066.73 1066.14C1024 1053.04 983.377 1029.58 944.425 1003.23ZM1458.17 609.267C1461.95 596.018 1467.4 579.876 1471.18 566.626C1567.37 614.445 1656.88 673.839 1728.54 730.643C1711.75 786.533 1686.24 837.397 1654.94 884.912C1640.35 903.491 1625.75 922.07 1611.16 940.649C1612.48 918.263 1610.89 894.201 1607.64 873.033C1593.92 749.374 1545.21 659.523 1458.17 609.267ZM1599.64 525.052C1567.72 506.625 1532.9 486.523 1499.32 470.989C1499.76 463.527 1504.77 454.846 1505.21 447.385C1505.65 439.922 1508.99 434.135 1511.1 423.78C1593.66 448.299 1664.26 446.624 1721.24 421.649C1745.94 486.066 1752.36 555.358 1748.41 622.518C1702.42 588.253 1651.87 555.205 1599.64 525.052ZM1524.29 327.229C1531.93 273.774 1535.01 221.54 1537.65 176.767C1595.24 217.733 1641.57 271.491 1677.1 330.579C1640.08 347.788 1589 349.158 1524.29 327.229ZM1439 119.81C1443.83 165.04 1440.32 224.737 1432.23 285.653C1362.59 245.448 1307.11 194.127 1251.63 142.805L1183.31 80.2129C1269.3 71.9901 1358.55 84.9351 1439 119.81ZM1415.7 387.991C1411.92 401.24 1409.81 411.595 1408.93 426.52L1407.26 429.414C1243.45 357.989 1022.32 292.047 806.293 317.782C811.304 309.102 816.316 300.421 825.9 290.523C884.721 208.744 967.985 144.935 1061.54 110.214C1105.06 135.341 1144.8 173.719 1187.45 213.771C1249.96 273.012 1319.51 340.172 1415.7 387.991ZM1383.69 523.833L1367.34 572.261C1190.96 536.015 946.359 664.85 762.069 762.923C723.382 655.711 720.039 534.185 756.528 424.08C928.157 388.141 1148.14 422.559 1383.69 523.833ZM1182.09 1094.15C1191.67 1084.26 1202.92 1071.46 1212.51 1061.56C1294.63 966.231 1367.69 846.381 1424.23 701.555C1473.12 737.495 1502.39 800.695 1509.61 882.017C1513.21 922.678 1513.47 969.126 1505.82 1022.58C1409.28 1082.58 1293.75 1108.47 1182.09 1094.15Z" fill="#F2F2F2"/>
</g>
</g>
</g>
<g opacity="0.05">
<g clip-path="url(#clip2_88_18)">
<g clip-path="url(#clip3_88_18)">
<path d="M288.376 958.346C278.551 902.826 248.4 854.433 202.682 821.302C156.965 788.171 100.593 775.833 45.6033 784.501C-9.96966 794.179 -58.3581 824.172 -91.4252 869.747C-124.493 915.322 -136.712 971.585 -127.9 1026.52C-118.075 1082.04 -87.9237 1130.43 -42.2063 1163.56C-36.7103 1168.08 -30.6311 1171.59 -25.5649 1174.52C16.9899 1199.09 65.6857 1208.34 113.859 1199.78C169.432 1190.1 217.821 1160.11 250.889 1114.53C284.967 1069.54 297.618 1014.88 288.376 958.346ZM-22.4029 1138.62C-42.5136 1124.32 -59.2777 1106.56 -71.6819 1085.92C-16.4775 1055.82 62.9828 1014.13 113.428 1020.35C95.0065 1066.3 71.6723 1106.72 45.3288 1135.96C37.4688 1144.9 28.5958 1153.25 20.3057 1160.59C5.38394 1156.01 -8.80108 1147.82 -22.4029 1138.62ZM156.996 1001.05C158.317 996.422 160.22 990.785 161.54 986.158C195.13 1002.86 226.385 1023.6 251.41 1043.43C245.547 1062.95 236.641 1080.71 225.71 1097.3C220.616 1103.79 215.517 1110.28 210.421 1116.77C210.881 1108.95 210.329 1100.55 209.193 1093.16C204.403 1049.97 187.393 1018.6 156.996 1001.05ZM206.398 971.64C195.252 965.206 183.094 958.186 171.365 952.761C171.519 950.156 173.269 947.124 173.422 944.519C173.576 941.913 174.743 939.892 175.479 936.276C204.31 944.838 228.966 944.253 248.861 935.532C257.487 958.026 259.729 982.223 258.348 1005.68C242.291 993.71 224.637 982.17 206.398 971.64ZM180.085 902.56C182.756 883.894 183.83 865.654 184.751 850.019C204.862 864.324 221.042 883.097 233.448 903.73C220.521 909.739 202.682 910.218 180.085 902.56ZM150.302 830.129C151.991 845.924 150.763 866.77 147.938 888.042C123.621 874.002 104.247 856.081 84.8733 838.159L61.0167 816.302C91.0445 813.431 122.209 817.951 150.302 830.129ZM142.166 923.779C140.846 928.405 140.109 932.021 139.802 937.233L139.219 938.243C82.0183 913.302 4.7993 890.275 -70.6389 899.261C-68.8889 896.23 -67.1388 893.199 -63.7922 889.743C-43.2517 861.185 -14.1757 838.903 18.4927 826.779C33.6907 835.553 47.5687 848.954 62.4601 862.941C84.2901 883.628 108.577 907.08 142.166 923.779ZM130.99 971.215L125.28 988.126C63.6888 975.469 -21.7277 1020.46 -86.082 1054.71C-99.5915 1017.27 -100.759 974.829 -88.0167 936.381C-28.0838 923.831 48.7359 935.85 130.99 971.215ZM60.5887 1170.37C63.9353 1166.92 67.8651 1162.45 71.2121 1158.99C99.8888 1125.7 125.403 1083.85 145.145 1033.28C162.216 1045.83 172.441 1067.9 174.958 1096.29C176.217 1110.49 176.31 1126.71 173.638 1145.38C139.926 1166.33 99.5818 1175.37 60.5887 1170.37Z" fill="#F2F2F2"/>
</g>
</g>
</g>
<defs>
<clipPath id="clip0_88_18">
<rect width="1209.59" height="1209.59" fill="white" transform="translate(633.61 -19.1904)"/>
</clipPath>
<clipPath id="clip1_88_18">
<rect width="1209.59" height="1206.59" fill="white" transform="translate(633.61 -19.1904)"/>
</clipPath>
<clipPath id="clip2_88_18">
<rect width="422.39" height="422.39" fill="white" transform="translate(-130.94 781.59)"/>
</clipPath>
<clipPath id="clip3_88_18">
<rect width="422.39" height="421.341" fill="white" transform="translate(-130.94 781.59)"/>
</clipPath>
</defs>
</svg>
