<svg width="33" height="42" viewBox="0 0 33 42" fill="none" xmlns="http://www.w3.org/2000/svg">
<g clip-path="url(#clip0_1_1031)">
<path d="M32.0871 10.8402C32.3601 11.1132 32.5148 11.4817 32.5148 11.8684V39.926C32.5148 40.7313 31.8642 41.3819 31.0589 41.3819H1.94123C1.13595 41.3819 0.485352 40.7313 0.485352 39.926V2.07307C0.485352 1.26778 1.13595 0.617188 1.94123 0.617188H21.2635C21.6503 0.617188 22.0233 0.771875 22.2963 1.04485L32.0871 10.8402ZM29.1571 12.5372L20.5948 3.97482V12.5372H29.1571ZM22.0151 26.6984C21.3245 26.6756 20.5902 26.7289 19.7562 26.8331C18.6507 26.1511 17.9063 25.2143 17.3777 23.838L17.4264 23.6388L17.4828 23.4031C17.6784 22.5783 17.7835 21.9763 17.8149 21.3694C17.8386 20.9113 17.8131 20.4886 17.7316 20.0969C17.5815 19.2511 16.9832 18.7566 16.2294 18.7261C15.5265 18.6974 14.8803 19.0901 14.7152 19.6984C14.4464 20.682 14.6038 21.9763 15.1738 24.1838C14.4477 25.915 13.4882 27.9446 12.8444 29.0765C11.985 29.5197 11.3158 29.9227 10.7534 30.3695C10.0119 30.9596 9.54868 31.566 9.42129 32.203C9.35941 32.4983 9.45267 32.8841 9.66514 33.2003C9.90627 33.5588 10.2694 33.7917 10.7048 33.8254C11.8035 33.9105 13.1538 32.7776 14.6447 30.2194C14.7944 30.1694 14.9527 30.1166 15.1461 30.0511L15.6875 29.8681C16.0301 29.7526 16.2785 29.6698 16.5241 29.5901C17.5888 29.2434 18.3941 29.0247 19.1266 28.8999C20.3996 29.5815 21.8709 30.0282 22.8618 30.0282C23.6798 30.0282 24.2326 29.6043 24.4324 28.9368C24.6075 28.3509 24.4688 27.6712 24.092 27.2954C23.7026 26.9127 22.9865 26.7298 22.0151 26.6984ZM10.7325 32.5411V32.5247L10.7384 32.5092C10.8049 32.3371 10.8904 32.173 10.9932 32.0197C11.1879 31.7203 11.4559 31.4054 11.788 31.0702C11.9663 30.8904 12.152 30.7153 12.3699 30.5188C12.4185 30.4751 12.7298 30.198 12.788 30.1434L13.2962 29.6702L12.9267 30.2585C12.3662 31.1521 11.8595 31.7954 11.4254 32.2149C11.2657 32.3695 11.1251 32.4832 11.0114 32.5565C10.9738 32.5816 10.9341 32.6032 10.8927 32.6212C10.8739 32.6288 10.8576 32.6334 10.8412 32.6348C10.824 32.637 10.8064 32.6347 10.7903 32.628C10.7731 32.6208 10.7585 32.6086 10.7483 32.5932C10.738 32.5778 10.7324 32.5596 10.7325 32.5411ZM16.4623 22.6101L16.3595 22.7921L16.2957 22.5929C16.1547 22.1456 16.051 21.4718 16.0223 20.8639C15.9896 20.1724 16.0447 19.7575 16.263 19.7575C16.5696 19.7575 16.7103 20.2489 16.7212 20.9882C16.7312 21.6379 16.6293 22.3139 16.4623 22.6101ZM16.1979 25.2698L16.2676 25.0855L16.3626 25.2585C16.8945 26.2248 17.5847 27.031 18.3436 27.5928L18.5073 27.7139L18.3076 27.7548C17.5647 27.9086 16.8727 28.1398 15.9263 28.5214C16.0251 28.4814 14.9427 28.9246 14.6688 29.0296L14.43 29.1211L14.5573 28.8991C15.1192 27.9209 15.6388 26.7462 16.1979 25.2698ZM23.3691 28.7394C23.0114 28.8804 22.2417 28.7543 20.8863 28.1757L20.5424 28.0292L20.9155 28.0018C21.9755 27.9231 22.7262 27.9814 23.1639 28.1415C23.3505 28.2097 23.4746 28.2957 23.5297 28.3941C23.5587 28.4406 23.5684 28.4966 23.5568 28.5501C23.5453 28.6037 23.5133 28.6507 23.4678 28.6812C23.4389 28.7066 23.4054 28.7264 23.3691 28.7394Z" fill="#F8F8F8"/>
</g>
<defs>
<clipPath id="clip0_1_1031">
<rect width="33" height="42" fill="white"/>
</clipPath>
</defs>
</svg>
