<svg width="43" height="33" viewBox="0 0 43 33" fill="none" xmlns="http://www.w3.org/2000/svg">
<g clip-path="url(#clip0_1_270)">
<g clip-path="url(#clip1_1_270)">
<path d="M26.824 31.9858H38.6577C39.4946 31.9858 40.2972 31.6391 40.889 31.0221C41.4808 30.4051 41.8133 29.5683 41.8133 28.6957V15.5354C41.8133 14.6627 41.4808 13.826 40.889 13.209C40.2972 12.592 39.4946 12.2453 38.6577 12.2453H27.1765V10.6003C27.1817 8.85673 27.8483 7.18619 29.0308 5.95334C30.2132 4.7205 31.8155 4.02548 33.4877 4.02006C33.9062 4.02006 34.1461 3.69856 34.4419 3.39005C34.7378 3.08154 34.7131 2.81131 34.7131 2.37502C34.7131 1.93873 34.5469 1.5203 34.251 1.2118C33.9551 0.903293 33.5538 0.72998 33.1353 0.72998C30.6245 0.72998 28.2166 1.76988 26.4412 3.62091C24.6658 5.47194 23.6684 7.98248 23.6684 10.6003V28.6957C23.6684 29.5683 24.0008 30.4051 24.5926 31.0221C25.1844 31.6391 25.9871 31.9858 26.824 31.9858ZM3.94567 31.9858H15.7793C16.6162 31.9858 17.4188 31.6391 18.0106 31.0221C18.6025 30.4051 18.9349 29.5683 18.9349 28.6957V15.5354C18.9349 14.6627 18.6025 13.826 18.0106 13.209C17.4188 12.592 16.6162 12.2453 15.7793 12.2453H4.31547V10.6003C4.32068 8.85673 4.98729 7.18619 6.16976 5.95334C7.35222 4.7205 8.95449 4.02548 10.6268 4.02006C11.0452 4.02006 11.4465 3.84675 11.7424 3.53824C11.8348 2.92109 11.8348 2.81131 11.8348 2.37502C11.8348 1.93873 11.6686 1.5203 11.3726 1.2118C11.0767 0.903293 10.6754 0.72998 10.2569 0.72998C7.74616 0.72998 5.33821 1.76988 3.56283 3.62091C1.78744 5.47194 0.790039 7.98248 0.790039 10.6003V28.6957C0.790039 29.5683 1.12251 30.4051 1.7143 31.0221C2.3061 31.6391 3.10875 31.9858 3.94567 31.9858Z" fill="white"/>
</g>
</g>
<defs>
<clipPath id="clip0_1_270">
<rect width="42" height="32" fill="white" transform="translate(0.5 0.72998)"/>
</clipPath>
<clipPath id="clip1_1_270">
<rect width="42" height="31.2558" fill="white" transform="translate(0.5 0.72998)"/>
</clipPath>
</defs>
</svg>
