<svg width="1920" height="1056" viewBox="0 0 1920 1056" fill="none" xmlns="http://www.w3.org/2000/svg">
<rect width="1920" height="1055" transform="translate(0 0.72998)" fill="url(#paint0_radial_1_254)"/>
<g clip-path="url(#clip0_1_254)">
<g clip-path="url(#clip1_1_254)">
<path opacity="0.03" d="M1936.84 364.243C1899.01 207.486 1782.88 70.856 1606.77 -22.677C1430.66 -116.209 1213.5 -151.029 1001.66 -126.539C787.563 -99.1958 601.14 -14.497 473.734 114.193C346.328 242.883 299.231 401.748 333.157 556.853C370.986 713.609 487.12 850.24 663.228 943.77C684.399 956.53 707.817 966.44 727.333 974.7C891.261 1044.06 1078.85 1070.17 1264.44 1045.98C1478.53 1018.64 1664.95 933.94 1792.36 805.251C1923.67 678.212 1972.42 523.852 1936.84 364.243ZM739.529 873.34C662.06 832.96 597.485 782.813 549.707 724.557C762.389 639.556 1068.52 521.815 1262.85 539.368C1191.86 669.105 1101.95 783.228 1000.46 865.82C970.175 891.05 935.989 914.62 904.05 935.35C846.567 922.44 791.924 899.32 739.529 873.34ZM1430.7 484.851C1435.79 471.788 1443.12 455.871 1448.21 442.807C1577.6 489.946 1698.01 548.497 1794.4 604.497C1771.8 659.604 1737.49 709.758 1695.38 756.608C1675.74 774.928 1656.1 793.248 1636.46 811.568C1638.24 789.496 1636.12 765.772 1631.74 744.901C1613.31 622.978 1547.79 534.393 1430.7 484.851ZM1621.02 401.803C1578.09 383.638 1531.25 363.821 1486.07 348.509C1486.66 341.151 1493.41 332.592 1494 325.235C1494.59 317.877 1499.09 312.171 1501.93 301.96C1612.99 326.127 1707.97 324.469 1784.62 299.838C1817.85 363.35 1826.47 431.669 1821.14 497.887C1759.29 464.107 1691.28 431.528 1621.02 401.803ZM1519.68 206.762C1529.98 154.058 1534.13 102.556 1537.68 58.411C1615.15 98.796 1677.48 151.795 1725.26 210.051C1675.46 227.022 1606.74 228.378 1519.68 206.762ZM1404.98 2.26299C1411.48 46.858 1406.74 105.718 1395.85 165.78C1302.17 126.146 1227.55 75.55 1152.92 24.954C1122.28 4.38498 1091.65 -16.183 1061.02 -36.752C1176.7 -44.8685 1296.76 -32.114 1404.98 2.26299ZM1373.6 266.684C1368.51 279.747 1365.67 289.958 1364.48 304.673L1362.24 307.526C1141.89 237.12 844.42 172.126 553.799 197.522C560.542 188.963 567.286 180.404 580.18 170.643C659.32 90.005 771.341 27.084 897.197 -7.16002C955.743 17.611 1009.2 55.445 1066.56 94.931C1150.65 153.335 1244.2 219.545 1373.6 266.684ZM1330.53 400.623C1323.19 416.539 1315.85 432.456 1308.52 448.373C1071.25 412.654 742.176 539.706 494.245 636.422C442.216 530.718 437.737 410.897 486.838 302.333C717.728 266.881 1013.66 300.794 1330.53 400.623ZM1059.23 962.96C1072.12 953.2 1087.27 940.59 1100.16 930.83C1210.65 836.824 1308.96 718.647 1385.03 575.847C1450.79 611.278 1490.17 673.589 1499.86 753.769C1504.7 793.86 1505.05 839.656 1494.75 892.36C1364.87 951.53 1209.45 977.07 1059.23 962.96Z" fill="white"/>
</g>
</g>
<defs>
<radialGradient id="paint0_radial_1_254" cx="0" cy="0" r="1" gradientUnits="userSpaceOnUse" gradientTransform="translate(-85.44 186.208) scale(2596.42 4875.68)">
<stop stop-color="#74076B"/>
<stop offset="0.3662" stop-color="#8D1E7B"/>
<stop offset="0.9963" stop-color="#952498"/>
</radialGradient>
<clipPath id="clip0_1_254">
<rect width="1920" height="1055" fill="white" transform="translate(0 0.72998)"/>
</clipPath>
<clipPath id="clip1_1_254">
<rect width="1598" height="1190" fill="white" transform="translate(322 -134.27)"/>
</clipPath>
</defs>
</svg>
