<svg width="9" height="9" viewBox="0 0 9 9" fill="none" xmlns="http://www.w3.org/2000/svg">
<path d="M3.10202 1.74598C3.10202 1.38598 3.22802 1.07998 3.48002 0.82798C3.74402 0.57598 4.05602 0.44998 4.41602 0.44998C4.76402 0.44998 5.06402 0.58198 5.31602 0.84598C5.58002 1.09798 5.71202 1.39798 5.71202 1.74598C5.71202 2.10598 5.58602 2.41798 5.33402 2.68198C5.08202 2.93398 4.77602 3.05998 4.41602 3.05998C4.04402 3.05998 3.73202 2.93398 3.48002 2.68198C3.22802 2.42998 3.10202 2.11798 3.10202 1.74598ZM3.06602 7.25398C3.06602 6.89398 3.19202 6.58198 3.44402 6.31798C3.69602 6.05398 4.00202 5.92198 4.36202 5.92198C4.71002 5.92198 5.01002 6.05398 5.26202 6.31798C5.52602 6.58198 5.65802 6.89398 5.65802 7.25398C5.65802 7.60198 5.52602 7.90198 5.26202 8.15398C5.01002 8.40598 4.71002 8.53198 4.36202 8.53198C4.00202 8.53198 3.69602 8.40598 3.44402 8.15398C3.19202 7.90198 3.06602 7.60198 3.06602 7.25398ZM5.62202 3.00598C5.62202 2.65798 5.75402 2.35198 6.01802 2.08798C6.28202 1.82398 6.58802 1.69198 6.93602 1.69198C7.29602 1.69198 7.60202 1.82398 7.85402 2.08798C8.11802 2.35198 8.25002 2.65798 8.25002 3.00598C8.25002 3.36598 8.11802 3.67198 7.85402 3.92398C7.60202 4.17598 7.29602 4.30198 6.93602 4.30198C6.57602 4.30198 6.26402 4.17598 6.00002 3.92398C5.74802 3.67198 5.62202 3.36598 5.62202 3.00598ZM5.62202 5.93998C5.62202 5.57998 5.75402 5.26798 6.01802 5.00398C6.28202 4.73998 6.58802 4.60798 6.93602 4.60798C7.29602 4.60798 7.60202 4.73998 7.85402 5.00398C8.11802 5.26798 8.25002 5.57998 8.25002 5.93998C8.25002 6.28798 8.11802 6.58798 7.85402 6.83998C7.60202 7.09198 7.29602 7.21798 6.93602 7.21798C6.58802 7.21798 6.28202 7.09198 6.01802 6.83998C5.75402 6.58798 5.62202 6.28798 5.62202 5.93998ZM0.51002 5.93998C0.51002 5.57998 0.63602 5.26798 0.88802 5.00398C1.15202 4.73998 1.45802 4.60798 1.80602 4.60798C2.17802 4.60798 2.49002 4.73998 2.74202 5.00398C3.00602 5.26798 3.13802 5.57998 3.13802 5.93998C3.13802 6.28798 3.00602 6.58798 2.74202 6.83998C2.49002 7.09198 2.17802 7.21798 1.80602 7.21798C1.45802 7.21798 1.15202 7.09198 0.88802 6.83998C0.63602 6.58798 0.51002 6.28798 0.51002 5.93998ZM0.51002 3.00598C0.51002 2.65798 0.63602 2.35198 0.88802 2.08798C1.15202 1.82398 1.45802 1.69198 1.80602 1.69198C2.17802 1.69198 2.49002 1.82398 2.74202 2.08798C3.00602 2.33998 3.13802 2.64598 3.13802 3.00598C3.13802 3.36598 3.00602 3.67198 2.74202 3.92398C2.49002 4.17598 2.17802 4.30198 1.80602 4.30198C1.45802 4.30198 1.15202 4.17598 0.88802 3.92398C0.63602 3.67198 0.51002 3.36598 0.51002 3.00598Z" fill="#EB5757"/>
</svg>
