<svg width="25" height="25" viewBox="0 0 25 25" fill="none" xmlns="http://www.w3.org/2000/svg">
<g clip-path="url(#clip0_22_326)">
<path fill-rule="evenodd" clip-rule="evenodd" d="M6.23749 12.2558C4.32037 10.3386 4.19086 7.35987 5.94822 5.60251C7.70558 3.84515 10.6843 3.97467 12.6015 5.89178L19.1369 12.4272C19.3972 12.6875 19.3972 13.1096 19.1369 13.37C18.8765 13.6303 18.4544 13.6303 18.1941 13.37L11.6587 6.83459C10.3096 5.48551 8.2134 5.39437 6.97674 6.63103C5.74008 7.86769 5.83122 9.96385 7.1803 11.313L13.8657 17.9983C14.7178 18.8504 16.0416 18.9079 16.8227 18.1269C17.6037 17.3458 17.5462 16.022 16.6941 15.1699L10.3944 8.8702C10.1104 8.58619 9.66911 8.567 9.40876 8.82735C9.14841 9.0877 9.1676 9.529 9.45161 9.81301L15.6013 15.9627C15.8617 16.2231 15.8617 16.6452 15.6013 16.9055C15.341 17.1659 14.9189 17.1659 14.6585 16.9055L8.50881 10.7558C7.65675 9.90377 7.59919 8.57988 8.38024 7.79883C9.16129 7.01778 10.4852 7.07534 11.3373 7.92739L17.6369 14.2271C19.057 15.6472 19.153 17.8537 17.8512 19.1554C16.5495 20.4572 14.343 20.3612 12.9229 18.9411L6.23749 12.2558Z" fill="#894083"/>
</g>
<defs>
<clipPath id="clip0_22_326">
<rect width="24" height="24" fill="white" transform="translate(0.689941 0.42041)"/>
</clipPath>
</defs>
</svg>
