<svg width="351" height="650" viewBox="0 0 351 650" fill="none" xmlns="http://www.w3.org/2000/svg">
<path opacity="0.1" d="M0.46277 510.315C1.0327 506.9 2.90364 488.524 3.06648 484.622C3.22932 480.718 4.53203 471.287 6.07732 470.798C7.62426 470.312 12.3432 471.612 12.6689 471.775C12.9929 471.938 13.5629 472.751 13.5629 472.751C13.5629 472.751 14.2956 471.775 15.5966 471.856C16.8993 471.937 31.0561 475.434 32.8457 476.084C34.6369 476.734 35.8565 476.897 35.8565 476.897C35.8565 476.897 37.0778 473.807 39.6815 473.482C42.2852 473.156 46.8413 472.67 49.2822 471.124C51.7231 469.58 59.6971 464.945 64.0904 463.4C68.4836 461.855 69.3793 463.725 69.3793 463.725C69.3793 463.725 83.5128 456.07 90.209 452.098C98.0185 447.464 102.088 443.642 109.085 438.275C116.082 432.91 124.87 433.153 132.111 431.853C139.352 430.553 151.5 426.964 152.615 426.323C155.3 424.779 172.387 394.288 174.99 392.175C174.99 392.175 174.746 388.515 176.129 386.483C177.513 384.45 180.848 382.58 181.499 380.467C182.15 378.351 184.51 371.359 185.729 368.513C186.951 365.667 191.262 352.334 191.67 351.439C192.077 350.546 190.774 349.732 191.1 347.13C191.425 344.528 194.11 339.406 194.192 337.78C194.273 336.153 195.25 327.372 197.447 322.331C199.644 317.29 206.722 315.258 208.023 311.354C209.326 307.452 215.427 300.297 216.893 300.053C218.257 299.826 222.939 299.033 223.373 298.994C222.989 298.99 219.244 297.064 218.845 294.117C218.438 291.108 220.879 285.092 219.903 276.148C218.926 267.204 217.544 261.838 218.194 254.764C218.845 247.691 217.463 235.169 215.184 225.494C212.905 215.817 210.545 204.597 210.301 202.402C210.058 200.207 211.441 199.393 211.36 195.166C211.278 190.937 214.615 186.058 218.519 182.4C222.426 178.741 230.561 174.106 231.619 172.4C232.678 170.693 234.956 168.659 236.013 168.091C237.071 167.521 240.487 164.675 241.301 164.187C242.116 163.699 243.661 163.536 243.661 163.536C243.661 163.536 244.068 160.041 243.58 158.849C243.091 157.655 240.208 152.461 239.241 151.529C236.42 148.819 231.212 140.69 230.508 136.408C230.199 134.531 233.246 119.956 236.094 116.215C238.264 113.366 243.84 109.151 250.512 106.548C248.588 95.7699 246.843 86.3751 246.507 85.236C245.695 82.4714 244.066 72.5519 243.254 71.2518C242.44 69.95 238.696 64.5834 238.372 63.446C238.046 62.3069 237.884 59.705 239.185 58.2422C240.487 56.7777 238.372 51.0873 237.232 47.6718C235.993 43.9573 233.49 36.4522 233.165 32.7112C232.839 28.9719 234.14 20.6779 234.954 20.3525C235.611 20.0901 236.267 19.7248 237.264 20.8705C241.768 8.731 253.459 0.0800781 267.174 0.0800781C284.789 0.0800781 299.069 14.3499 299.069 31.9523C299.069 49.5547 284.789 63.8246 267.174 63.8246C265.913 63.8246 264.67 63.7433 263.447 63.6005C263.113 66.0895 262.299 70.953 261.804 72.0638C261.153 73.5283 261.478 75.9674 262.455 78.8948C263.346 81.5665 270.065 100.217 272.098 105.678C275.397 106.533 277.785 107.518 278.322 107.841C279.543 108.572 284.044 114.345 284.751 114.779C285.455 115.212 288.33 118.302 288.385 119.006C288.439 119.712 288.014 122.463 288.277 123.018C288.71 123.939 290.691 125.369 292.67 126.975C295.274 129.088 297.444 129.414 297.606 131.094C297.769 132.775 296.629 134.022 296.196 134.402C295.762 134.78 294.625 135.277 295.571 136.298C296.588 137.396 298.392 138.656 298.826 138.656C299.26 138.656 299.911 139.835 299.64 140.811C299.369 141.787 297.334 142.153 296.684 143.02C296.033 143.888 294.596 147.397 294.459 148.278C294.375 148.829 297.277 151.127 297.809 153.251C298.379 155.528 298.148 157.71 297.606 158.09C297.063 158.468 294.664 155.704 294.067 155.974C293.469 156.247 292.289 157.817 292.289 158.686C292.289 159.553 294.026 162.643 293.7 164.838C293.374 167.033 293.049 169.065 290.039 170.042C287.029 171.016 280.276 170.611 279.706 171.586C279.136 172.562 279.204 174.253 279.462 175.49C279.869 177.441 277.591 180.855 277.591 180.855C277.591 180.855 284.018 184.84 285.726 186.628C287.436 188.416 288.33 190.287 288.085 191.344C287.841 192.401 287.517 192.483 288.248 193.701C288.981 194.922 296.304 205.816 298.989 211.508C301.674 217.2 300.778 223.704 300.697 229.559C300.616 235.413 300.86 240.778 301.348 242.161C301.348 242.161 310.786 272.083 312.089 276.636C313.39 281.189 323.805 297.992 327.494 310.135C327.494 310.135 328.904 309.81 329.772 312.194C330.639 314.58 332.593 321.951 333.243 324.012C333.894 326.071 335.197 328.239 335.197 328.998C335.197 329.757 334.653 331.059 334.653 331.059C334.653 331.059 339.995 348.664 340.62 350.139C341.813 352.956 344.743 355.884 344.851 359.462C344.96 363.039 347.129 371.495 347.888 374.964C348.649 378.433 349.95 384.287 349.732 384.938C349.516 385.589 348.214 390.684 348.214 392.527C348.214 394.37 349.516 401.632 349.95 404.234C350.384 406.836 351.417 411.55 350.817 412.15C349.516 413.45 346.805 412.258 346.261 411.173C345.72 410.089 343.55 403.15 343.55 403.15C343.55 403.15 344.091 409.113 343.442 409.438C342.79 409.764 339.753 409.222 339.319 407.054C338.884 404.885 338.342 397.838 338.342 396.105C338.342 394.37 338.776 389.707 338.668 388.625C338.56 387.54 337.908 387.648 337.149 388.732C336.39 389.817 332.593 394.587 331.942 396.538C331.29 398.489 330.531 401.417 329.88 401.417C329.23 401.417 327.494 400.44 327.927 396.864C328.361 393.285 330.749 388.189 331.508 386.997C332.267 385.805 334.979 382.229 334.979 381.686C334.979 381.144 334.002 375.507 333.135 374.531C332.267 373.554 331.398 376.482 330.423 377.674C329.446 378.868 325.432 379.842 323.697 378.542C321.96 377.241 323.479 375.94 324.672 375.182C325.867 374.423 328.145 368.676 328.471 366.725C328.795 364.774 329.338 363.472 330.531 361.629C331.724 359.786 318.597 344.176 316.211 341.465C316.211 341.465 311.871 341.141 310.027 338.105C308.182 335.069 305.082 329.245 304.06 327.806C301.674 324.445 300.589 321.518 301.674 320.433C301.674 320.433 294.948 306.774 294.08 303.196C294.08 303.196 290.933 310.026 290.284 311.653C289.632 313.278 288.765 319.024 286.269 319.782C286.269 319.782 287.788 322.819 286.161 325.421C284.533 328.023 283.014 335.069 283.014 335.069C283.014 335.069 285.4 336.478 286.052 340.815C286.703 345.151 290.717 350.029 289.199 354.366C287.68 358.703 283.34 375.94 284.099 380.385C284.859 384.829 287.245 387.866 286.919 394.37C286.595 400.874 286.595 406.511 287.896 410.74C289.199 414.968 287.137 420.279 288.222 423.099C289.307 425.916 290.29 428.547 289.958 429.061C288.765 430.905 281.713 433.832 281.713 433.832C281.713 433.832 279.109 446.732 276.722 456.055C274.336 465.379 270.321 477.52 270.321 480.014C270.321 482.508 271.19 489.879 269.128 493.674C267.066 497.468 259.798 501.804 259.798 501.804C259.798 501.804 259.906 504.515 256.977 507.008C254.049 509.502 250.253 511.778 245.804 516.115C241.356 520.451 222.263 539.639 221.178 540.399C220.093 541.158 218.356 540.941 218.356 540.941C218.356 540.941 196.118 558.395 194.273 559.803C194.273 559.803 195.141 561.646 192.321 564.791C189.5 567.935 181.906 573.681 179.736 575.958C177.566 578.234 171.817 583.329 170.84 584.63C169.864 585.93 168.887 587.123 171.165 586.256C173.444 585.389 176.915 583.546 177.676 584.305C178.435 585.064 178.543 587.448 177.458 588.966C176.373 590.485 170.514 593.844 168.128 594.928C165.742 596.013 162.595 598.94 160.317 600.458C158.039 601.975 156.086 602.734 155.109 604.577C154.134 606.42 148.275 617.046 147.516 617.804C146.757 618.563 142.96 627.561 142.416 630.271C141.875 632.981 140.464 644.473 137.752 646.424C135.041 648.375 133.956 648.049 133.956 648.049C133.956 648.049 133.005 648.863 132.193 649.026C131.378 649.189 126.985 649.026 126.578 647.97C126.171 646.912 120.394 629.024 120.07 619.593C119.744 610.161 121.696 599.103 120.882 594.224C120.07 589.346 117.303 576.987 117.79 573.734C118.278 570.483 120.07 564.059 122.103 562.678C124.137 561.294 128.856 561.783 128.856 561.783L129.752 562.433C129.752 562.433 130.32 561.539 132.681 561.294C135.041 561.05 150.417 561.213 152.045 561.783C153.672 562.352 153.428 558.448 155.543 557.067C157.66 555.684 158.88 556.335 159.205 555.847C159.531 555.36 161.402 553.651 162.379 553.326C163.354 553.002 164.657 548.448 166.202 548.122C167.749 547.798 170.19 545.44 172.142 543.732C174.095 542.025 177.513 539.993 179.139 541.537C179.139 541.537 195.493 521.291 198.015 517.145C198.015 517.145 196.877 513.322 199.806 510.965C202.736 508.607 211.604 500.801 214.94 496.573C218.275 492.346 227.47 481.206 228.69 480.313C229.911 479.418 232.108 479.174 232.108 479.174C232.108 479.174 234.223 475.434 234.386 474.133C234.549 472.832 233.409 452.993 232.596 449.415C231.782 445.837 230.155 438.113 230.155 438.113C230.155 438.113 224.297 436.731 223.238 435.187C222.181 433.641 224.378 430.227 223.727 426.893C223.075 423.559 218.926 410.793 218.926 410.793C218.926 410.793 217.625 412.502 217.055 412.42C217.055 412.42 197.121 433.153 195.33 434.861C193.54 436.568 180.359 446.895 178.977 447.79C177.594 448.683 176.129 453.724 172.061 454.863C167.992 456.001 151.068 459.416 144.397 461.448C137.726 463.481 102.251 474.784 98.6699 476.002C95.0908 477.223 78.4101 483.076 78.4101 483.076C78.4101 483.076 78.4914 484.703 77.5161 485.435C76.539 486.166 62.6265 495.192 61.0795 496.411C59.5343 497.631 58.1502 498.362 58.1502 498.362C58.1502 498.362 60.3468 503.079 59.1272 504.786C57.9059 506.493 51.3974 507.551 47.9795 509.014C44.5633 510.478 43.5048 512.592 41.0639 513.485C38.6231 514.38 35.1254 514.95 34.6368 515.68C34.1483 516.413 30.0808 522.105 27.8825 524.869C25.6858 527.634 22.1068 531.78 20.7227 532.512C19.3402 533.243 16.7365 540.155 15.4338 543.895C14.1328 547.636 11.2848 551.212 9.82094 551.538C8.35541 551.863 8.35536 551.863 8.35536 551.863C8.35536 551.863 7.54288 553.082 6.32161 553.082C5.10199 553.082 2.79067 552.476 2.49823 551.375C2.17255 550.156 0.544195 537.472 0.220183 532.024C-0.10549 526.576 -0.105497 513.729 0.46277 510.315Z" fill="white"/>
</svg>
