<svg width="239" height="490" viewBox="0 0 239 490" fill="none" xmlns="http://www.w3.org/2000/svg">
<g clip-path="url(#clip0_1_2235)">
<path opacity="0.1" d="M115.596 -24.7357C115.596 -24.7357 115.806 -25.8097 114.88 -26.4967C113.952 -27.1837 106.96 -33.5747 105.856 -33.9627C104.75 -34.3497 104.151 -34.2897 103.913 -34.7077C103.672 -35.1257 103.553 -36.2007 102.478 -36.4107C101.402 -36.6187 100.626 -37.3957 100.357 -38.0227C100.088 -38.6487 101.432 -40.1717 100.684 -40.8297C99.9383 -41.4867 100.385 -42.6197 100.535 -44.1137C100.684 -45.6067 102.508 -63.6687 102.926 -67.6117C103.345 -71.5517 111.89 -101.051 112.309 -101.826C112.727 -102.604 112.19 -103.379 112.19 -103.379C112.19 -103.379 115.537 -109.231 116.851 -109.59C116.851 -109.59 117.749 -108.993 118.525 -107.858C119.302 -106.722 120.139 -105.648 121.155 -104.933C122.17 -104.216 123.486 -101.289 124.382 -99.2002C125.279 -97.1097 131.913 -79.4947 133.049 -76.1497C134.183 -72.8067 139.504 -56.9807 141.475 -52.5637C143.448 -48.1437 152.054 -34.1117 153.368 -32.1407C154.684 -30.1707 155.998 -26.5877 158.21 -25.2137C160.422 -23.8407 161.554 -22.6697 162.215 -21.0327C163.709 -17.3307 167.623 -11.9577 167.623 -11.9577C167.623 -11.9577 166.966 -11.0607 167.146 -10.1967C167.324 -9.32968 169.745 -6.91168 169.745 -6.91168C169.745 -6.91168 168.668 -5.23969 166.966 -4.40369C165.262 -3.56668 164.962 -3.41768 165.381 -1.65668C165.799 0.105316 167.293 3.12032 167.293 3.12032C167.293 3.12032 163.887 4.37532 163.709 5.48032C163.709 5.48032 156.087 -1.06067 149.663 -3.77667C143.238 -6.49367 133.257 -9.41867 132.27 -10.0167C131.286 -10.6147 116.463 -24.2287 115.596 -24.7357ZM128.983 441.481C128.983 441.481 128.649 442.084 128.446 442.735C128.28 443.269 128.278 443.949 128.132 443.945C126.832 443.899 124.637 444.527 124.188 444.391C123.739 444.258 122.484 443.497 123.157 442.422C123.83 441.347 125.623 441.212 126.877 441.212C128.132 441.212 128.983 441.481 128.983 441.481ZM7.18171 451.184C12.7393 453.156 25.4695 452.915 31.6859 447.961C37.9006 443.004 38.4383 437.509 39.0954 436.555C39.7542 435.599 43.0415 435.837 44.7135 435.599C46.3874 435.361 55.3532 432.793 58.6992 430.105C62.0469 427.418 63.0619 423.896 63.0619 421.207C63.0619 418.521 61.7477 416.55 61.7477 416.55C61.7477 416.55 61.6284 413.744 60.9713 411.235C60.6169 409.887 58.042 401.8 57.8034 401.024C57.563 400.249 58.2219 396.128 58.0421 395.353C57.8622 394.575 54.6355 393.739 54.6355 393.739C54.6355 393.739 56.0103 385.439 56.6674 382.692C57.3244 379.945 59.8655 374.572 60.5813 372.959C61.299 371.347 60.2235 370.541 60.2235 370.541C60.2235 370.541 69.6362 340.445 70.5337 338.833C71.4294 337.221 79.049 326.83 80.8422 320.65C82.6353 314.469 82.1866 297.272 84.6974 292.614C87.2082 287.956 95.9941 275.327 95.9941 275.327C95.9941 275.327 96.71 275.505 97.6074 275.327C98.5031 275.148 102.538 270.042 106.125 265.563C109.709 261.085 116.253 252.844 119.122 248.903C121.992 244.963 131.852 236.005 131.852 236.005C131.852 236.005 132.57 248.724 131.583 252.933C130.598 257.144 128.983 265.474 129.074 270.848C129.163 276.222 127.819 278.194 129.074 281.238C130.33 284.284 140.191 287.687 140.191 287.687C140.549 293.331 142.791 298.615 142.969 299.78C143.149 300.944 141.804 305.87 142.073 309.542C142.342 313.215 143.866 316.709 143.866 316.709C143.238 317.246 143.418 319.664 144.044 320.65C144.673 321.635 145.3 325.576 145.66 327.994C146.018 330.414 147.451 330.771 147.451 330.771C147.451 330.771 147.182 354.329 147.273 358.448C147.362 362.568 145.718 398.338 145.718 398.338C145.718 398.338 144.643 399.083 144.224 399.92C143.806 400.756 143.986 406.697 143.626 408.549C143.268 410.399 142.251 413.087 141.236 416.849C140.22 420.612 135.26 429.927 135.26 429.927C135.26 429.927 133.886 429.268 132.57 430.046C131.256 430.822 131.076 435.3 131.076 435.3C131.076 435.3 131.314 436.078 130.358 436.854C129.402 437.629 129.701 438.884 129.82 439.241C129.94 439.6 129.582 440.137 129.582 440.137C129.582 440.137 128.027 439.659 126.533 439.778C125.039 439.899 123.068 440.436 122.17 442.107C121.275 443.78 123.606 445.034 123.606 445.034C122.827 445.512 122.708 446.049 122.231 446.407C121.752 446.765 118.107 446.646 117.33 446.706C116.552 446.765 116.851 447.363 116.851 447.363C116.851 447.363 121.513 447.005 122.649 447.183C123.784 447.363 126.832 446.765 126.832 446.765C126.832 446.765 122.977 454.2 120.468 456.886C117.957 459.575 106.662 468.531 104.062 472.383C101.463 476.235 102.178 479.459 103.972 481.608C105.765 483.759 116.344 491.729 128.714 488.237C142.463 484.355 142.88 475.786 146.913 471.757C150.948 467.725 150.859 470.949 158.03 465.665C165.203 460.381 166.098 455.455 166.098 452.946C166.098 450.437 164.754 448.288 164.754 448.288C164.754 442.467 161.706 434.583 161.706 433.599C161.706 432.613 162.603 429.568 162.512 428.582C162.423 427.598 159.823 425.896 159.823 425.896C159.823 425.896 160.092 421.866 160.361 418.282C160.63 414.699 163.947 405.652 164.396 403.772C164.843 401.891 163.23 401.024 163.23 401.024C163.23 401.024 170.88 366.39 171.717 362.449C172.553 358.508 176.14 353.374 176.977 344.894C177.814 336.415 173.69 322.142 173.69 322.142C173.69 322.142 174.527 321.128 174.108 320.052C173.69 318.977 172.553 315.515 172.614 313.962C172.673 312.409 170.999 311.932 170.999 311.932C170.402 309.783 174.347 291.032 174.347 291.032C174.347 291.032 178.649 290.434 178.77 287.806C178.889 285.18 187.376 271.326 191.082 262.608C194.786 253.889 193.471 244.335 196.34 239.558C199.209 234.781 202.557 224.39 202.557 224.39C206.262 222.839 208.891 218.3 209.131 211.015C209.248 207.396 212.715 188.562 212.837 179.725C212.956 170.888 206.141 165.87 206.382 163.721C206.62 161.572 206.141 153.929 206.141 153.929C206.141 153.929 210.005 152.923 212.596 149.628C214.363 147.383 215.03 143.234 215.465 140.911C216.188 137.066 213.075 125.145 212.956 123.713C212.837 122.279 213.912 118.696 215.107 116.189C216.302 113.681 213.912 108.067 213.672 106.395C213.433 104.724 214.749 98.2753 217.497 92.5423C220.246 86.8103 227.896 74.6283 231.482 71.1643C235.069 67.7023 234.47 63.2833 237.339 53.3693C239.828 44.7693 236.862 34.2613 236.862 34.2613C236.862 34.2613 241.164 22.5583 235.188 13.4803C231.03 7.16632 224.55 0.822327 224.55 0.822327C224.55 0.822327 228.375 -3.35867 228.136 -12.0767C227.896 -20.7947 223.474 -31.5427 208.951 -34.5887C194.428 -37.6347 184.746 -32.0817 184.746 -32.0817C179.726 -36.4997 175.602 -51.3677 169.505 -60.2067C163.41 -69.0437 155.281 -77.7027 151.935 -82.5987C148.587 -87.4952 140.042 -105.171 139.205 -107.201C138.368 -109.231 138.426 -111.023 138.786 -112.396C139.144 -113.77 140.519 -115.083 142.85 -116.994C145.181 -118.904 145.419 -121.114 145.898 -122.488C146.375 -123.861 148.826 -126.727 151.397 -128.042C153.573 -129.154 154.624 -130.25 154.385 -131.147C154.146 -132.042 152.173 -132.997 149.244 -132.579C146.317 -132.161 143.866 -129.953 142.791 -128.339C141.714 -126.727 141.416 -126.01 140.579 -126.19C139.742 -126.37 138.964 -126.608 138.964 -126.608C140.1 -128.101 140.998 -129.414 141.835 -130.609C142.67 -131.803 143.806 -135.326 143.986 -136.103C144.164 -136.879 143.387 -137.655 142.67 -137.655C142.595 -137.655 142.517 -137.639 142.435 -137.612C145.457 -142.375 147.212 -148.02 147.212 -154.076C147.212 -171.094 133.405 -184.89 116.374 -184.89C99.3418 -184.89 85.5343 -171.094 85.5343 -154.076C85.5343 -140.05 94.9185 -128.22 107.756 -124.493C108.571 -123.802 109.323 -122.989 108.603 -122.847C107.408 -122.607 105.496 -122.011 102.688 -120.577C99.8778 -119.144 99.2813 -115.024 98.683 -112.933C98.0847 -110.843 96.5319 -108.217 96.5319 -108.217C96.5319 -108.217 96.0529 -108.575 95.0966 -107.262C94.1404 -105.947 77.7651 -61.1617 75.9113 -52.1447C75.7012 -51.1217 70.8916 -36.9177 72.5957 -32.1707C73.8654 -28.6317 80.3044 -18.7347 84.0706 -15.5997C87.835 -12.4647 90.8835 -6.46368 91.959 -5.12068C93.0346 -3.77669 94.7387 -3.14868 94.7387 -3.14868C94.7387 -3.14868 106.751 12.7053 117.688 17.9893C123.613 20.8513 129.881 25.0643 129.881 26.1413C129.881 27.2153 130.419 32.5893 130.419 32.5893C130.419 32.5893 129.701 36.8893 122.708 53.1913C115.715 69.4923 107.109 84.8993 107.469 94.3933C107.827 103.888 106.931 111.232 106.214 116.248C105.496 121.265 109.62 130.042 110.069 130.67C110.516 131.296 110.607 133.625 111.144 134.431C111.682 135.237 113.564 134.7 115.089 136.134C116.49 137.452 123.121 140.661 124.175 141.169C124.017 141.177 123.695 141.35 123.068 142.135C121.992 143.478 122.261 145.718 121.184 145.627C120.108 145.538 115.089 143.298 114.013 144.552C112.937 145.807 101.283 158.437 99.2208 161.392C97.1587 164.347 93.7522 170.888 93.0346 179.038C92.317 187.188 82.5463 204.745 80.0355 209.94C77.5265 215.135 75.0157 214.238 72.4159 218.09C69.816 221.942 69.0984 224.54 64.5274 229.287C61.3506 232.585 59.4167 238.782 56.8169 241.737C54.2171 244.694 49.7351 246.126 49.7351 246.126C49.7351 246.126 49.8241 246.664 51.7971 248.724C53.7684 250.784 59.6856 253.293 61.5678 256.068C63.45 258.845 64.9743 259.742 64.9743 259.742C64.1374 263.443 59.9545 269.773 58.7597 272.162C57.563 274.55 56.2489 280.642 56.1296 283.389C56.0103 286.134 56.1296 290.553 53.1416 297.122C50.1536 303.691 44.117 331.757 43.3994 339.162C42.6818 346.565 40.2315 366.271 40.2315 366.271C38.9761 366.57 38.8568 368.42 38.798 369.436C38.7375 370.452 37.3628 376.721 36.8856 379.826C36.4066 382.931 34.4353 389.5 33.7177 393.202C33.0001 396.904 31.0271 401.263 29.5331 400.786C28.0391 400.308 27.5013 402.697 27.3232 404.369C27.1433 406.04 26.1871 407.951 26.1871 407.951C26.1871 407.951 25.3502 408.311 22.8394 408.787C20.3304 409.265 19.3742 410.28 18.9557 410.341C18.5373 410.399 15.4281 410.579 14.8316 410.579C14.2333 410.579 14.0552 411.296 14.5324 411.235C15.0114 411.177 18.1775 411.057 18.5373 411.475C18.8952 411.892 20.5085 412.431 20.5085 412.431C20.5085 412.431 20.3304 413.505 20.4497 414.101C20.569 414.699 22.3622 415.057 22.3622 415.057C22.3622 415.057 20.09 419.656 18.2381 421.745C16.3844 423.835 7.53966 432.375 4.4911 435.479C1.44432 438.585 0.906482 443.66 0.906482 443.66C0.906482 443.66 0.488056 444.557 0.366968 445.571C0.247661 446.587 1.62237 449.213 7.18171 451.184Z" fill="white"/>
</g>
<defs>
<clipPath id="clip0_1_2235">
<rect width="238" height="674" fill="white" transform="translate(0.359985 -184.89)"/>
</clipPath>
</defs>
</svg>
