<svg width="378" height="872" viewBox="0 0 378 872" fill="none" xmlns="http://www.w3.org/2000/svg">
<g clip-path="url(#clip0_1_1968)">
<path opacity="0.4" d="M372.299 358.184C353.094 243.837 289.379 144.953 191.191 78.1705C93.002 11.3877 -29.1868 -12.0469 -149.193 7.86716C-270.507 29.8901 -376.984 93.622 -450.73 188.987C-524.477 284.353 -553.275 401.042 -536.253 514.218C-517.049 628.565 -453.334 727.449 -355.145 794.232C-343.363 803.37 -330.271 810.4 -319.361 816.258C-227.719 865.467 -122.113 882.809 -16.9441 863.363C104.371 841.34 210.847 777.609 284.594 682.243C360.522 588.049 390.194 474.64 372.299 358.184ZM-311.072 741.98C-354.275 713.158 -390.059 677.072 -416.244 634.894C-294.93 570.694 -120.378 481.658 -10.8448 492.673C-52.7353 588.274 -105.099 672.627 -163.573 734.017C-181.028 752.762 -200.665 770.335 -218.993 785.799C-251.286 776.895 -281.833 760.492 -311.072 741.98ZM84.7227 451.201C87.7772 441.594 92.1406 429.878 95.1951 420.272C167.636 453.546 234.841 495.256 288.517 535.326C274.99 575.863 254.918 612.884 230.481 647.563C219.135 661.153 207.79 674.743 196.444 688.333C197.753 672.165 196.88 654.826 194.697 639.595C185.967 550.554 150.182 486.35 84.7227 451.201ZM193.381 388.641C169.38 375.753 143.196 361.693 117.885 350.914C118.321 345.525 122.249 339.198 122.685 333.809C123.121 328.42 125.739 324.202 127.485 316.704C189.889 333.342 243.564 331.234 287.202 312.49C305.095 358.651 309.024 408.561 305.098 457.064C270.623 432.929 232.656 409.731 193.381 388.641ZM138.829 246.878C145.374 208.215 148.427 170.49 151.045 138.155C194.248 166.977 228.723 205.171 254.908 247.349C226.543 260.236 187.705 261.875 138.829 246.878ZM76.858 98.3191C79.9136 130.889 76.4238 174.003 69.4427 218.055C17.0756 189.936 -24.3821 153.615 -65.8398 117.295C-82.8592 102.533 -99.8787 87.7706 -116.898 73.0082C-51.4404 65.9803 16.1997 74.183 76.858 98.3191ZM55.4804 292.099C52.426 301.706 50.6806 309.204 49.8081 319.983L48.4991 322.091C-74.9996 272.647 -242.137 227.889 -406.654 249.208C-402.727 242.881 -398.799 236.555 -391.381 229.291C-345.562 169.541 -281.414 122.445 -209.848 96.2035C-177.118 113.778 -147.443 140.959 -115.586 169.312C-68.8919 211.256 -16.9606 258.824 55.4804 292.099ZM29.2999 390.512C24.9364 402.227 20.5729 413.943 16.2094 425.659C-117.326 401.755 -304.969 497.821 -446.356 570.925C-474.287 494.068 -475.162 406.433 -445.926 326.532C-315.011 298.417 -148.311 320.446 29.2999 390.512ZM-131.715 804.547C-124.297 797.283 -115.569 787.911 -108.151 780.647C-44.4406 710.822 12.7236 623.423 57.6685 518.215C94.3257 543.523 115.71 588.746 120.075 647.326C122.258 676.616 121.823 710.123 115.278 748.785C41.0934 793.304 -47.0561 813.453 -131.715 804.547Z" fill="#F5F5F5"/>
</g>
<defs>
<clipPath id="clip0_1_1968">
<rect width="378" height="871" fill="white" transform="translate(0 0.249268)"/>
</clipPath>
</defs>
</svg>
