<svg width="56" height="66" viewBox="0 0 56 66" fill="none" xmlns="http://www.w3.org/2000/svg">
<path d="M53 26.027C53 12.2198 41.8071 1.02677 28 1.02677C14.1929 1.02677 3 12.2198 3 26.0271C3 39.8343 14.1929 51.0273 28 51.0273C41.8071 51.0273 53 39.8343 53 26.027Z" fill="#D1AF5A"/>
<path d="M25.4772 45.3025C25.4709 45.2922 25.4634 45.2819 25.4551 45.2722L16.1956 34.5169L5.26758 21.8023L7.5909 16.835C7.60349 16.8075 7.61036 16.7783 7.61122 16.7477L8.04435 0.40918L20.2964 8.79072C20.3273 8.81189 20.3633 8.82476 20.4005 8.8282L27.8915 9.49278C27.8975 9.49278 35.3735 8.8282 35.3735 8.8282C35.411 8.82476 35.4471 8.81189 35.478 8.79072L47.7297 0.40918L48.1628 16.7477C48.164 16.778 48.1708 16.8075 48.1834 16.835L50.5065 21.8023L39.5785 34.5169L30.3324 45.2564C30.3141 45.2776 30.3003 45.3019 30.2915 45.3277L27.8975 48.1173L25.4772 45.3025Z" fill="#7C2B19"/>
<g opacity="0.25" filter="url(#filter0_f_140_34)">
<path d="M27.8882 22.4375V48.4335L16.0298 34.6603L27.8882 22.4375Z" fill="#212123"/>
</g>
<g opacity="0.15" filter="url(#filter1_f_140_34)">
<path d="M27.8878 21.8301V22.4374L16.0294 34.6603L5.00244 21.8301H27.8878Z" fill="#212123"/>
</g>
<g opacity="0.75" filter="url(#filter2_f_140_34)">
<path d="M27.8872 22.4375V48.4335L39.7456 34.6603L27.8872 22.4375Z" fill="#212123"/>
</g>
<g opacity="0.75" filter="url(#filter3_f_140_34)">
<path d="M27.8872 21.8301V22.4374L39.7456 34.6603L50.7726 21.8301H27.8872Z" fill="#212123"/>
</g>
<path d="M47.939 0L34.8496 8.95457L43.1284 10.4348L47.939 0Z" fill="#CC541F"/>
<path d="M48.3917 17.0686L47.9394 0L43.4575 9.42976L48.3917 17.0686Z" fill="#A03F22"/>
<path d="M27.8872 22.4375V48.4335L39.7456 34.6603L27.8872 22.4375Z" fill="#F9AE93"/>
<path d="M27.8872 21.8301V22.4374L39.7456 34.6603L50.7726 21.8301H27.8872Z" fill="#CC541F"/>
<path d="M44.2112 7.82227L42.8955 17.6036L50.7727 21.8518L44.2112 7.82227Z" fill="#AF432B"/>
<path d="M27.8872 9.27359L42.9366 17.6036L44.2111 7.82227L27.8872 9.27359Z" fill="#C65634"/>
<path d="M27.8774 42.4297L27.898 48.4539L30.5089 45.4107L27.8774 42.4297Z" fill="#7C2B19"/>
<path d="M27.8872 9.27148V21.8517H50.7726L27.8872 9.27148Z" fill="#B74B21"/>
<g filter="url(#filter4_i_140_34)">
<path d="M39.003 24.81C39.003 25.7789 38.2174 26.5643 37.2484 26.5643C36.2797 26.5643 35.4941 25.7789 35.4941 24.81C35.4941 23.841 36.2797 23.0557 37.2484 23.0557C38.2174 23.0557 39.003 23.841 39.003 24.81Z" fill="#7C2B19"/>
</g>
<path d="M7.83594 0L20.9251 8.95457L12.6468 10.4348L7.83594 0Z" fill="#F46221"/>
<path d="M7.38379 17.0686L7.8361 0L12.3177 9.42976L7.38379 17.0686Z" fill="#CC541F"/>
<path d="M27.8882 22.4375V48.4335L16.0298 34.6603L27.8882 22.4375Z" fill="#FFC7B6"/>
<path d="M27.8878 21.8301V22.4374L16.0294 34.6603L5.00244 21.8301H27.8878Z" fill="#F46221"/>
<path d="M11.5636 7.82227L12.8796 17.6036L5.00244 21.8518L11.5636 7.82227Z" fill="#F46221"/>
<path d="M27.8877 9.27359L12.8386 17.6036L11.5635 7.82227L27.8877 9.27359Z" fill="#FC682D"/>
<path d="M27.9003 42.4893L28.4605 47.0072L27.898 48.4539L26.9468 46.566L27.9003 42.4893Z" fill="#7C2B19"/>
<path d="M27.8982 42.4238V48.4546L25.2871 45.4183L27.8982 42.4238Z" fill="#A03F22"/>
<path d="M27.8878 9.27148V21.8517H5.00244L27.8878 9.27148Z" fill="#F97541"/>
<g filter="url(#filter5_i_140_34)">
<path d="M20.004 24.81C20.004 25.7789 19.2184 26.5643 18.2494 26.5643C17.2807 26.5643 16.4951 25.7789 16.4951 24.81C16.4951 23.841 17.2807 23.0557 18.2494 23.0557C19.2184 23.0557 20.004 23.841 20.004 24.81Z" fill="#7C2B19"/>
</g>
<path d="M9.52711 62.0928L7.11158 54.644H9.28237L11.3148 61.0925H10.2188L12.3577 54.644H14.2943L16.3162 61.0925H15.2627L17.359 54.644H19.3702L16.9546 62.0928H14.6987L12.9748 56.6126H13.5814L11.783 62.0928H9.52711ZM22.0618 57.5277H25.5202V59.1026H22.0618V57.5277ZM22.2108 60.4647H26.1054V62.0928H20.1251V54.644H25.9671V56.2721H22.2108V60.4647ZM27.2746 62.0928V54.644H31.0841C32.0631 54.644 32.7938 54.8249 33.2762 55.1867C33.7586 55.5414 33.9998 56.0096 33.9998 56.5913C33.9998 56.9744 33.8969 57.3114 33.6912 57.6022C33.4926 57.886 33.2088 58.113 32.8399 58.2832C32.4781 58.4464 32.0454 58.528 31.5417 58.528L31.7545 58.0172C32.2795 58.0172 32.7371 58.0988 33.1272 58.262C33.5174 58.418 33.8189 58.6486 34.0317 58.9536C34.2516 59.2516 34.3616 59.6169 34.3616 60.0497C34.3616 60.6952 34.0991 61.1989 33.5742 61.5607C33.0563 61.9154 32.2972 62.0928 31.297 62.0928H27.2746ZM29.3603 60.5711H31.1267C31.4885 60.5711 31.7616 60.5108 31.9461 60.3902C32.1376 60.2625 32.2334 60.071 32.2334 59.8156C32.2334 59.5602 32.1376 59.3722 31.9461 59.2516C31.7616 59.1239 31.4885 59.0601 31.1267 59.0601H29.2113V57.6022H30.8075C31.1622 57.6022 31.4282 57.5419 31.6056 57.4213C31.7829 57.3007 31.8716 57.1198 31.8716 56.8786C31.8716 56.6374 31.7829 56.4601 31.6056 56.3466C31.4282 56.226 31.1622 56.1657 30.8075 56.1657H29.3603V60.5711ZM38.3579 62.2417C37.7195 62.2417 37.1519 62.0892 36.6554 61.7842C36.1659 61.4791 35.7792 61.0393 35.4955 60.4647C35.2117 59.8901 35.0698 59.1913 35.0698 58.3684C35.0698 57.5455 35.2117 56.8467 35.4955 56.2721C35.7792 55.6975 36.1659 55.2576 36.6554 54.9526C37.1519 54.6475 37.7195 54.495 38.3579 54.495C38.9893 54.495 39.5497 54.6475 40.0392 54.9526C40.5358 55.2576 40.926 55.6975 41.2098 56.2721C41.4935 56.8467 41.6354 57.5455 41.6354 58.3684C41.6354 59.1913 41.4935 59.8901 41.2098 60.4647C40.926 61.0393 40.5358 61.4791 40.0392 61.7842C39.5497 62.0892 38.9893 62.2417 38.3579 62.2417ZM38.3579 60.5179C38.5849 60.5179 38.7836 60.4469 38.9538 60.3051C39.1312 60.1632 39.2695 59.9362 39.3688 59.624C39.4682 59.3048 39.5178 58.8862 39.5178 58.3684C39.5178 57.8434 39.4682 57.4249 39.3688 57.1127C39.2695 56.8006 39.1312 56.5736 38.9538 56.4317C38.7836 56.2898 38.5849 56.2189 38.3579 56.2189C38.1309 56.2189 37.9287 56.2898 37.7514 56.4317C37.5811 56.5736 37.4428 56.8006 37.3364 57.1127C37.2371 57.4249 37.1874 57.8434 37.1874 58.3684C37.1874 58.8862 37.2371 59.3048 37.3364 59.624C37.4428 59.9362 37.5811 60.1632 37.7514 60.3051C37.9287 60.4469 38.1309 60.5179 38.3579 60.5179ZM41.5661 62.0928L44.8223 57.5703L44.8116 59.0707L41.6831 54.644H44.0561L46.0566 57.5277L45.0457 57.5384L47.0143 54.644H49.2915L46.163 58.9856V57.4958L49.4618 62.0928H47.0356L45.0032 59.0601H45.9715L43.971 62.0928H41.5661Z" fill="#F46221"/>
<defs>
<filter id="filter0_f_140_34" x="11.7385" y="18.1462" width="20.4411" height="34.5787" filterUnits="userSpaceOnUse" color-interpolation-filters="sRGB">
<feFlood flood-opacity="0" result="BackgroundImageFix"/>
<feBlend mode="normal" in="SourceGraphic" in2="BackgroundImageFix" result="shape"/>
<feGaussianBlur stdDeviation="2.14566" result="effect1_foregroundBlur_140_34"/>
</filter>
<filter id="filter1_f_140_34" x="0.711113" y="17.5388" width="31.4679" height="21.4127" filterUnits="userSpaceOnUse" color-interpolation-filters="sRGB">
<feFlood flood-opacity="0" result="BackgroundImageFix"/>
<feBlend mode="normal" in="SourceGraphic" in2="BackgroundImageFix" result="shape"/>
<feGaussianBlur stdDeviation="2.14566" result="effect1_foregroundBlur_140_34"/>
</filter>
<filter id="filter2_f_140_34" x="23.5959" y="18.1462" width="20.4411" height="34.5787" filterUnits="userSpaceOnUse" color-interpolation-filters="sRGB">
<feFlood flood-opacity="0" result="BackgroundImageFix"/>
<feBlend mode="normal" in="SourceGraphic" in2="BackgroundImageFix" result="shape"/>
<feGaussianBlur stdDeviation="2.14566" result="effect1_foregroundBlur_140_34"/>
</filter>
<filter id="filter3_f_140_34" x="23.5959" y="17.5388" width="31.4679" height="21.4127" filterUnits="userSpaceOnUse" color-interpolation-filters="sRGB">
<feFlood flood-opacity="0" result="BackgroundImageFix"/>
<feBlend mode="normal" in="SourceGraphic" in2="BackgroundImageFix" result="shape"/>
<feGaussianBlur stdDeviation="2.14566" result="effect1_foregroundBlur_140_34"/>
</filter>
<filter id="filter4_i_140_34" x="35.4941" y="23.0557" width="3.50879" height="4.65314" filterUnits="userSpaceOnUse" color-interpolation-filters="sRGB">
<feFlood flood-opacity="0" result="BackgroundImageFix"/>
<feBlend mode="normal" in="SourceGraphic" in2="BackgroundImageFix" result="shape"/>
<feColorMatrix in="SourceAlpha" type="matrix" values="0 0 0 0 0 0 0 0 0 0 0 0 0 0 0 0 0 0 127 0" result="hardAlpha"/>
<feOffset dy="1.14435"/>
<feGaussianBlur stdDeviation="0.572177"/>
<feComposite in2="hardAlpha" operator="arithmetic" k2="-1" k3="1"/>
<feColorMatrix type="matrix" values="0 0 0 0 0 0 0 0 0 0 0 0 0 0 0 0 0 0 0.25 0"/>
<feBlend mode="normal" in2="shape" result="effect1_innerShadow_140_34"/>
</filter>
<filter id="filter5_i_140_34" x="16.4951" y="23.0557" width="3.50879" height="4.65314" filterUnits="userSpaceOnUse" color-interpolation-filters="sRGB">
<feFlood flood-opacity="0" result="BackgroundImageFix"/>
<feBlend mode="normal" in="SourceGraphic" in2="BackgroundImageFix" result="shape"/>
<feColorMatrix in="SourceAlpha" type="matrix" values="0 0 0 0 0 0 0 0 0 0 0 0 0 0 0 0 0 0 127 0" result="hardAlpha"/>
<feOffset dy="1.14435"/>
<feGaussianBlur stdDeviation="0.572177"/>
<feComposite in2="hardAlpha" operator="arithmetic" k2="-1" k3="1"/>
<feColorMatrix type="matrix" values="0 0 0 0 0 0 0 0 0 0 0 0 0 0 0 0 0 0 0.25 0"/>
<feBlend mode="normal" in2="shape" result="effect1_innerShadow_140_34"/>
</filter>
</defs>
</svg>
